<svg xmlns="http://www.w3.org/2000/svg" xmlns:xlink="http://www.w3.org/1999/xlink" width="500" zoomAndPan="magnify" viewBox="0 0 375 374.999991" height="500" preserveAspectRatio="xMidYMid meet" version="1.0"><defs><filter x="0%" y="0%" width="100%" height="100%" id="4306614631"><feColorMatrix values="0 0 0 0 1 0 0 0 0 1 0 0 0 0 1 0 0 0 1 0" color-interpolation-filters="sRGB"/></filter><g/><mask id="9983d48eea"><g filter="url(#4306614631)"><rect x="-37.5" width="450" fill="#000000" y="-37.499999" height="449.999989" fill-opacity="0.15"/></g></mask><clipPath id="4ff6f4d3c5"><path d="M 0.21875 169 L 37 169 L 37 200 L 0.21875 200 Z M 0.21875 169 " clip-rule="nonzero"/></clipPath><clipPath id="14b194a1e1"><path d="M 180 109 L 216.96875 109 L 216.96875 140 L 180 140 Z M 180 109 " clip-rule="nonzero"/></clipPath><clipPath id="30dcae8a12"><path d="M 84 181 L 127 181 L 127 217.804688 L 84 217.804688 Z M 84 181 " clip-rule="nonzero"/></clipPath><clipPath id="683c0f1ede"><path d="M 138 1.054688 L 216.96875 1.054688 L 216.96875 68 L 138 68 Z M 138 1.054688 " clip-rule="nonzero"/></clipPath><clipPath id="713b9bcee5"><rect x="0" width="218" y="0" height="219"/></clipPath><clipPath id="edeb8d13db"><path d="M 102.492188 118.363281 L 210 118.363281 L 210 226 L 102.492188 226 Z M 102.492188 118.363281 " clip-rule="nonzero"/></clipPath><clipPath id="339c7231c4"><path d="M 202 174 L 272.742188 174 L 272.742188 226 L 202 226 Z M 202 174 " clip-rule="nonzero"/></clipPath><clipPath id="7a086b066a"><path d="M 176 118.363281 L 272.742188 118.363281 L 272.742188 200 L 176 200 Z M 176 118.363281 " clip-rule="nonzero"/></clipPath><clipPath id="8af9c3186c"><path d="M 97.175781 150.417969 L 296.082031 150.417969 L 296.082031 184.78125 L 97.175781 184.78125 Z M 97.175781 150.417969 " clip-rule="nonzero"/></clipPath><clipPath id="beb38d73ef"><path d="M 87.597656 168.746094 L 245.832031 168.746094 L 245.832031 201.527344 L 87.597656 201.527344 Z M 87.597656 168.746094 " clip-rule="nonzero"/></clipPath><clipPath id="8a3a70cb8e"><path d="M 138 141.589844 L 222 141.589844 L 222 162 L 138 162 Z M 138 141.589844 " clip-rule="nonzero"/></clipPath><mask id="0b63185fba"><g filter="url(#4306614631)"><rect x="-37.5" width="450" fill="#000000" y="-37.499999" height="449.999989" fill-opacity="0.57"/></g></mask><clipPath id="9b4c0aeab9"><path d="M 0.878906 3 L 3 3 L 3 5 L 0.878906 5 Z M 0.878906 3 " clip-rule="nonzero"/></clipPath><clipPath id="5088c26ac1"><path d="M 5 0.449219 L 8 0.449219 L 8 3 L 5 3 Z M 5 0.449219 " clip-rule="nonzero"/></clipPath><clipPath id="fa1eb243a5"><path d="M 7.230469 4.84375 L 10.847656 4.84375 L 10.847656 8.34375 L 7.230469 8.34375 Z M 7.230469 4.84375 " clip-rule="nonzero"/></clipPath><clipPath id="47ee89cf04"><path d="M 25.199219 0.449219 L 27.613281 0.449219 L 27.613281 2.90625 L 25.199219 2.90625 Z M 25.199219 0.449219 " clip-rule="nonzero"/></clipPath><clipPath id="f7f311c735"><path d="M 19 4 L 24 4 L 24 8.640625 L 19 8.640625 Z M 19 4 " clip-rule="nonzero"/></clipPath><clipPath id="863585778c"><rect x="0" width="28" y="0" height="9"/></clipPath><mask id="eacf9a520c"><g filter="url(#4306614631)"><rect x="-37.5" width="450" fill="#000000" y="-37.499999" height="449.999989" fill-opacity="0.11"/></g></mask><clipPath id="3060a7954a"><path d="M 1.949219 19.277344 L 35 19.277344 L 35 37 L 1.949219 37 Z M 1.949219 19.277344 " clip-rule="nonzero"/></clipPath><clipPath id="d0ea1d3b1e"><path d="M 33 19.277344 L 81 19.277344 L 81 20 L 33 20 Z M 33 19.277344 " clip-rule="nonzero"/></clipPath><clipPath id="ee5261a45c"><path d="M 77 19.277344 L 83 19.277344 L 83 21 L 77 21 Z M 77 19.277344 " clip-rule="nonzero"/></clipPath><clipPath id="9c75e8b845"><path d="M 87 19.277344 L 104 19.277344 L 104 32 L 87 32 Z M 87 19.277344 " clip-rule="nonzero"/></clipPath><clipPath id="1d372bb853"><path d="M 81 19.277344 L 100 19.277344 L 100 20 L 81 20 Z M 81 19.277344 " clip-rule="nonzero"/></clipPath><clipPath id="4621e8a782"><path d="M 110 19.277344 L 113 19.277344 L 113 20 L 110 20 Z M 110 19.277344 " clip-rule="nonzero"/></clipPath><clipPath id="381a2ab7bd"><path d="M 107 41 L 111 41 L 111 44.027344 L 107 44.027344 Z M 107 41 " clip-rule="nonzero"/></clipPath><clipPath id="c0246f848f"><rect x="0" width="121" y="0" height="45"/></clipPath></defs><g mask="url(#9983d48eea)"><g transform="matrix(1, 0, 0, 1, 81, 78)"><g clip-path="url(#713b9bcee5)"><g clip-path="url(#4ff6f4d3c5)"><path fill="#3949ab" d="M 9.351562 199.742188 L 0.320312 184.6875 L 9.351562 169.636719 L 27.414062 169.636719 L 36.445312 184.6875 L 27.414062 199.742188 Z M 9.351562 199.742188 " fill-opacity="1" fill-rule="nonzero"/></g><path fill="#3949ab" d="M 110.199219 157.59375 L 102.675781 145.554688 L 110.199219 133.511719 L 125.253906 133.511719 L 132.777344 145.554688 L 125.253906 157.59375 Z M 110.199219 157.59375 " fill-opacity="1" fill-rule="nonzero"/><path fill="#3949ab" d="M 81.601562 61.261719 L 72.570312 46.210938 L 81.601562 31.15625 L 99.664062 31.15625 L 108.695312 46.210938 L 99.664062 61.261719 Z M 81.601562 61.261719 " fill-opacity="1" fill-rule="nonzero"/><g clip-path="url(#14b194a1e1)"><path fill="#3949ab" d="M 189.976562 139.53125 L 180.945312 124.480469 L 189.976562 109.429688 L 208.039062 109.429688 L 217.070312 124.480469 L 208.039062 139.53125 Z M 189.976562 139.53125 " fill-opacity="1" fill-rule="nonzero"/></g><path fill="#3949ab" d="M 154.519531 163.617188 L 150.839844 157.59375 L 154.519531 151.574219 L 161.902344 151.574219 L 165.585938 157.59375 L 161.902344 163.617188 Z M 154.519531 163.617188 " fill-opacity="1" fill-rule="nonzero"/><path fill="#3949ab" d="M 22.898438 55.242188 L 18.382812 47.863281 L 22.898438 40.496094 L 31.929688 40.496094 L 36.445312 47.863281 L 31.929688 55.242188 Z M 22.898438 55.242188 " fill-opacity="1" fill-rule="nonzero"/><path fill="#1e88e5" d="M 28.917969 109.429688 L 18.382812 91.367188 L 28.917969 73.304688 L 49.992188 73.304688 L 60.527344 91.367188 L 49.992188 109.429688 Z M 28.917969 109.429688 " fill-opacity="1" fill-rule="nonzero"/><g clip-path="url(#30dcae8a12)"><path fill="#1e88e5" d="M 95.148438 217.804688 L 84.613281 199.742188 L 95.148438 181.679688 L 116.222656 181.679688 L 126.757812 199.742188 L 116.222656 217.804688 Z M 95.148438 217.804688 " fill-opacity="1" fill-rule="nonzero"/></g><path fill="#1e88e5" d="M 135.789062 103.40625 L 120.738281 76.3125 L 135.789062 49.21875 L 165.894531 49.21875 L 180.945312 76.3125 L 165.894531 103.40625 Z M 135.789062 103.40625 " fill-opacity="1" fill-rule="nonzero"/><path fill="#64b5f6" d="M 33.652344 187.699219 L 12.363281 151.574219 L 33.652344 115.449219 L 75.359375 115.449219 L 96.652344 151.574219 L 75.359375 187.699219 Z M 33.652344 187.699219 " fill-opacity="1" fill-rule="nonzero"/><g clip-path="url(#683c0f1ede)"><path fill="#64b5f6" d="M 156.863281 67.28125 L 138.800781 33.898438 L 156.863281 1.054688 L 199.007812 1.054688 L 217.070312 33.898438 L 199.007812 67.28125 Z M 156.863281 67.28125 " fill-opacity="1" fill-rule="nonzero"/></g></g></g></g><g clip-path="url(#edeb8d13db)"><path fill="#2a9d8f" d="M 156.226562 172.4375 L 176.917969 213.964844 L 177.449219 215.027344 C 180.707031 221.097656 188.855469 225.246094 197.003906 225.246094 L 209.152344 225.246094 L 209.070312 225.085938 L 195.464844 197.875 L 180.257812 167.464844 L 166.59375 140.132812 L 155.824219 118.585938 L 102.492188 225.246094 L 137.75 225.246094 C 150.78125 225.246094 161.453125 214.582031 161.453125 201.542969 L 141.453125 201.542969 L 155.820312 171.617188 Z M 156.226562 172.4375 " fill-opacity="1" fill-rule="nonzero"/></g><g clip-path="url(#339c7231c4)"><path fill="#2a9d8f" d="M 202.257812 181.546875 L 222.109375 201.25 C 221.074219 201.398438 220.183594 201.398438 219.148438 201.398438 C 214.042969 201.398438 209.257812 200.125 205.074219 197.882812 L 218.679688 225.09375 C 218.835938 225.09375 218.988281 225.101562 219.148438 225.101562 C 227 225.101562 234.550781 223.324219 241.371094 220.214844 C 250.703125 227.324219 264.039062 226.734375 272.480469 218.140625 L 235.742188 181.550781 C 226.554688 172.214844 211.589844 172.214844 202.257812 181.546875 Z M 202.257812 181.546875 " fill-opacity="1" fill-rule="nonzero"/></g><g clip-path="url(#7a086b066a)"><path fill="#2a9d8f" d="M 219.148438 118.4375 C 201.519531 118.4375 185.90625 126.972656 176.199219 140.132812 L 189.863281 167.464844 C 191.949219 153.191406 204.179688 142.144531 219.144531 142.144531 C 235.441406 142.144531 248.773438 155.472656 248.773438 171.769531 L 248.476562 177.101562 C 248.476562 187.621094 255.289062 196.511719 264.625 199.621094 C 269.660156 191.476562 272.476562 181.996094 272.476562 171.769531 C 272.476562 165.402344 271.289062 159.328125 269.21875 153.546875 C 261.8125 133.109375 242.253906 118.4375 219.148438 118.4375 Z M 219.148438 118.4375 " fill-opacity="1" fill-rule="nonzero"/></g><g clip-path="url(#8af9c3186c)"><path fill="#d0dbe5" d="M 97.515625 163.75 C 98.046875 163.226562 98.527344 162.644531 99.109375 162.183594 C 100.351562 161.207031 101.613281 160.238281 102.925781 159.363281 C 104.628906 158.222656 106.453125 157.292969 108.332031 156.460938 C 110.222656 155.617188 112.148438 154.867188 114.113281 154.222656 C 116.769531 153.351562 119.488281 152.707031 122.230469 152.164062 C 123.472656 151.917969 124.726562 151.710938 125.984375 151.542969 C 127.261719 151.371094 128.550781 151.257812 129.835938 151.144531 C 131.039062 151.039062 132.242188 150.964844 133.449219 150.886719 C 134.199219 150.839844 134.949219 150.789062 135.699219 150.769531 C 137.539062 150.71875 139.378906 150.660156 141.21875 150.652344 C 142.511719 150.652344 143.808594 150.714844 145.101562 150.777344 C 146.328125 150.835938 147.554688 150.917969 148.78125 151.023438 C 149.859375 151.121094 150.929688 151.257812 152.003906 151.378906 C 153.183594 151.507812 154.367188 151.621094 155.542969 151.777344 C 156.734375 151.9375 157.925781 152.136719 159.117188 152.332031 C 160.449219 152.554688 161.785156 152.78125 163.113281 153.027344 C 164.136719 153.21875 165.15625 153.421875 166.171875 153.652344 C 169.054688 154.308594 171.941406 154.953125 174.816406 155.660156 C 176.738281 156.136719 178.648438 156.667969 180.539062 157.246094 C 183.714844 158.222656 186.882812 159.21875 190.027344 160.277344 C 193.351562 161.398438 196.644531 162.621094 199.960938 163.765625 C 202.882812 164.777344 205.816406 165.75 208.753906 166.722656 C 210.578125 167.320312 212.410156 167.902344 214.246094 168.460938 C 217.0625 169.316406 219.878906 170.160156 222.703125 170.984375 C 225.386719 171.769531 228.066406 172.5625 230.765625 173.285156 C 233.925781 174.125 237.097656 174.933594 240.285156 175.683594 C 243.851562 176.519531 247.433594 177.304688 251.019531 178.042969 C 252.875 178.425781 254.753906 178.679688 256.625 178.964844 C 257.898438 179.160156 259.179688 179.3125 260.460938 179.464844 C 261.371094 179.566406 262.28125 179.644531 263.195312 179.710938 C 264.046875 179.769531 264.902344 179.796875 265.757812 179.84375 C 266.488281 179.878906 267.21875 179.972656 267.945312 179.949219 C 269.316406 179.90625 270.695312 179.835938 272.0625 179.707031 C 273.324219 179.589844 274.589844 179.441406 275.832031 179.199219 C 278.171875 178.742188 280.449219 178.058594 282.605469 177.015625 C 283.886719 176.398438 285.144531 175.734375 286.308594 174.914062 C 287.777344 173.867188 289.140625 172.703125 290.164062 171.203125 C 290.925781 170.089844 291.398438 168.871094 291.542969 167.503906 C 291.761719 165.367188 291.101562 163.492188 290.007812 161.722656 C 289.351562 160.664062 288.535156 159.757812 287.539062 159.003906 C 286.398438 158.140625 285.101562 157.652344 283.703125 157.410156 C 282.042969 157.121094 280.425781 157.292969 278.84375 157.875 C 278.015625 158.179688 277.308594 158.636719 276.738281 159.296875 C 276.347656 159.75 276.160156 160.261719 276.429688 160.855469 C 276.5 161.007812 276.558594 161.164062 276.632812 161.3125 C 277.230469 162.550781 277.828125 163.785156 278.429688 165.023438 C 278.472656 165.117188 278.503906 165.210938 278.566406 165.359375 C 278.425781 165.371094 278.324219 165.402344 278.242188 165.378906 C 277.21875 165.027344 276.183594 164.695312 275.171875 164.304688 C 273.230469 163.546875 272.257812 161.304688 272.601562 159.511719 C 273.003906 157.425781 274.296875 156.035156 276.039062 154.980469 C 277.546875 154.070312 279.222656 153.566406 280.957031 153.425781 C 283.867188 153.191406 286.652344 153.6875 289.199219 155.234375 C 290.136719 155.800781 291.007812 156.445312 291.753906 157.230469 C 292.703125 158.222656 293.523438 159.320312 294.226562 160.515625 C 295.222656 162.222656 295.761719 164.070312 296.011719 165.996094 C 296.191406 167.390625 296 168.777344 295.625 170.136719 C 295.128906 171.929688 294.261719 173.527344 293.082031 174.964844 C 291.363281 177.054688 289.28125 178.695312 286.949219 180.050781 C 283.660156 181.957031 280.125 183.171875 276.394531 183.839844 C 275.148438 184.066406 273.882812 184.179688 272.625 184.347656 C 270.671875 184.609375 268.707031 184.632812 266.742188 184.582031 C 265.621094 184.554688 264.5 184.429688 263.378906 184.355469 C 262.691406 184.304688 262.003906 184.277344 261.320312 184.214844 C 260.488281 184.140625 259.660156 184.054688 258.835938 183.941406 C 257.785156 183.800781 256.738281 183.636719 255.691406 183.464844 C 254.601562 183.289062 253.515625 183.113281 252.433594 182.902344 C 250.453125 182.519531 248.46875 182.128906 246.496094 181.703125 C 244.847656 181.347656 243.203125 180.960938 241.566406 180.550781 C 238.472656 179.777344 235.382812 179 232.300781 178.171875 C 230.003906 177.558594 227.722656 176.886719 225.449219 176.191406 C 222.351562 175.25 219.269531 174.273438 216.183594 173.292969 C 214.214844 172.667969 212.238281 172.046875 210.289062 171.359375 C 206.453125 170.003906 202.625 168.617188 198.800781 167.214844 C 195.625 166.046875 192.476562 164.816406 189.296875 163.660156 C 186.101562 162.492188 182.902344 161.324219 179.667969 160.265625 C 176.875 159.351562 174.035156 158.5625 171.207031 157.769531 C 169.21875 157.214844 167.214844 156.703125 165.207031 156.242188 C 162.75 155.675781 160.285156 155.152344 157.8125 154.671875 C 156.019531 154.324219 154.207031 154.050781 152.394531 153.792969 C 151.160156 153.617188 149.914062 153.523438 148.671875 153.390625 C 147.554688 153.273438 146.4375 153.136719 145.320312 153.03125 C 144.613281 152.964844 143.90625 152.914062 143.199219 152.902344 C 140.101562 152.847656 137.003906 152.785156 133.90625 152.78125 C 132.679688 152.78125 131.457031 152.929688 130.226562 153.011719 C 129.582031 153.050781 128.9375 153.082031 128.292969 153.144531 C 127.199219 153.253906 126.101562 153.371094 125.007812 153.507812 C 124.058594 153.621094 123.105469 153.734375 122.164062 153.898438 C 120.8125 154.132812 119.460938 154.386719 118.117188 154.679688 C 115.957031 155.152344 113.820312 155.734375 111.75 156.515625 C 109.972656 157.183594 108.21875 157.917969 106.46875 158.652344 C 104.105469 159.640625 101.941406 160.980469 99.824219 162.402344 C 99.164062 162.84375 98.527344 163.308594 97.875 163.761719 C 97.796875 163.8125 97.707031 163.847656 97.625 163.890625 C 97.589844 163.84375 97.550781 163.796875 97.515625 163.75 " fill-opacity="1" fill-rule="nonzero"/></g><g clip-path="url(#beb38d73ef)"><path fill="#d0dbe5" d="M 110.425781 192.910156 C 110.5 193.09375 110.589844 193.273438 110.640625 193.464844 C 111.050781 194.917969 110.769531 196.273438 109.992188 197.527344 C 108.804688 199.429688 107.039062 200.539062 104.890625 201.089844 C 103.628906 201.414062 102.347656 201.609375 101.046875 201.496094 C 99.425781 201.359375 97.839844 201.023438 96.316406 200.414062 C 94.691406 199.761719 93.183594 198.902344 91.867188 197.773438 C 90.292969 196.417969 88.886719 194.898438 88.171875 192.882812 C 87.804688 191.835938 87.53125 190.757812 87.609375 189.648438 C 87.695312 188.402344 87.96875 187.183594 88.503906 186.039062 C 89.175781 184.59375 90.101562 183.324219 91.132812 182.105469 C 92.472656 180.527344 94.0625 179.261719 95.75 178.105469 C 97.316406 177.03125 99.011719 176.167969 100.753906 175.390625 C 102.550781 174.585938 104.394531 173.921875 106.265625 173.324219 C 108.828125 172.503906 111.429688 171.828125 114.070312 171.304688 C 115.96875 170.929688 117.867188 170.550781 119.769531 170.222656 C 120.835938 170.035156 121.917969 169.945312 122.992188 169.808594 C 123.855469 169.695312 124.71875 169.566406 125.585938 169.457031 C 126.039062 169.402344 126.496094 169.351562 126.953125 169.320312 C 127.703125 169.265625 128.453125 169.238281 129.199219 169.183594 C 130.070312 169.113281 130.941406 169.023438 131.8125 168.949219 C 131.894531 168.941406 131.980469 168.941406 132.0625 168.9375 C 134.71875 168.894531 137.375 168.851562 140.03125 168.8125 C 140.597656 168.804688 141.164062 168.796875 141.726562 168.816406 C 142.8125 168.847656 143.898438 168.882812 144.980469 168.945312 C 146.105469 169.007812 147.226562 169.082031 148.347656 169.195312 C 149.691406 169.328125 151.03125 169.507812 152.375 169.667969 C 153.46875 169.800781 154.5625 169.914062 155.65625 170.070312 C 156.890625 170.246094 158.121094 170.449219 159.351562 170.664062 C 160.988281 170.953125 162.628906 171.242188 164.261719 171.566406 C 165.875 171.886719 167.484375 172.226562 169.085938 172.597656 C 173.109375 173.527344 177.09375 174.605469 181.050781 175.785156 C 182.910156 176.335938 184.769531 176.890625 186.625 177.464844 C 189.175781 178.257812 191.71875 179.070312 194.269531 179.871094 C 196.636719 180.617188 199.007812 181.363281 201.378906 182.109375 C 204.027344 182.945312 206.671875 183.78125 209.320312 184.621094 C 211.390625 185.277344 213.453125 185.957031 215.527344 186.601562 C 218.851562 187.636719 222.1875 188.648438 225.519531 189.675781 C 227.832031 190.386719 230.144531 191.101562 232.457031 191.816406 C 235.265625 192.691406 238.078125 193.574219 240.886719 194.445312 C 242.398438 194.914062 243.917969 195.375 245.433594 195.84375 C 245.5625 195.882812 245.675781 195.949219 245.773438 196.105469 C 245.453125 196.066406 245.136719 196.039062 244.820312 195.984375 C 242.730469 195.621094 240.644531 195.242188 238.550781 194.890625 C 236.417969 194.53125 234.277344 194.222656 232.144531 193.855469 C 229.03125 193.316406 225.910156 192.785156 222.832031 192.050781 C 219.34375 191.214844 215.878906 190.300781 212.4375 189.292969 C 209.636719 188.46875 206.835938 187.640625 204.039062 186.796875 C 201.203125 185.9375 198.371094 185.066406 195.539062 184.183594 C 192.929688 183.371094 190.332031 182.515625 187.71875 181.714844 C 183.867188 180.539062 180.015625 179.367188 176.144531 178.25 C 173.824219 177.578125 171.480469 176.984375 169.125 176.425781 C 166.554688 175.8125 163.96875 175.246094 161.378906 174.730469 C 159.402344 174.332031 157.40625 174.015625 155.414062 173.714844 C 153.996094 173.5 152.566406 173.363281 151.140625 173.1875 C 150.210938 173.074219 149.285156 172.933594 148.355469 172.832031 C 147.734375 172.761719 147.109375 172.738281 146.484375 172.691406 C 145.386719 172.613281 144.285156 172.519531 143.183594 172.453125 C 142.640625 172.421875 142.09375 172.453125 141.550781 172.4375 C 140.128906 172.402344 138.710938 172.324219 137.289062 172.328125 C 135.679688 172.332031 134.070312 172.382812 132.464844 172.453125 C 131.109375 172.507812 129.757812 172.597656 128.40625 172.699219 C 127.039062 172.804688 125.667969 172.910156 124.304688 173.082031 C 121.601562 173.425781 118.90625 173.796875 116.222656 174.289062 C 112.152344 175.039062 108.160156 176.054688 104.265625 177.453125 C 101.542969 178.433594 98.9375 179.667969 96.597656 181.378906 C 95.640625 182.078125 94.710938 182.835938 93.882812 183.679688 C 92.707031 184.890625 91.671875 186.21875 91.039062 187.828125 C 90.277344 189.769531 90.53125 191.578125 91.617188 193.308594 C 92.480469 194.691406 93.640625 195.78125 94.984375 196.695312 C 96.484375 197.71875 98.085938 198.5 99.855469 198.925781 C 101.042969 199.207031 102.246094 199.34375 103.457031 199.246094 C 105.132812 199.109375 106.699219 198.609375 108.039062 197.570312 C 108.9375 196.878906 109.554688 195.964844 109.84375 194.859375 C 109.960938 194.421875 110.011719 193.964844 110.101562 193.519531 C 110.144531 193.320312 110.210938 193.125 110.261719 192.929688 C 110.316406 192.921875 110.371094 192.914062 110.425781 192.910156 " fill-opacity="1" fill-rule="nonzero"/></g><g clip-path="url(#8a3a70cb8e)"><path fill="#d0dbe5" d="M 138.039062 143.457031 C 138.144531 143.382812 138.242188 143.289062 138.359375 143.242188 C 139.21875 142.910156 140.117188 142.734375 141.027344 142.617188 C 141.875 142.511719 142.71875 142.371094 143.5625 142.273438 C 144.140625 142.203125 144.726562 142.167969 145.308594 142.132812 C 146.117188 142.078125 146.933594 142.050781 147.746094 141.992188 C 148.761719 141.925781 149.777344 141.835938 150.796875 141.757812 C 150.859375 141.753906 150.921875 141.75 150.984375 141.75 C 152.90625 141.707031 154.828125 141.636719 156.753906 141.632812 C 158.296875 141.628906 159.847656 141.6875 161.390625 141.753906 C 162.554688 141.808594 163.71875 141.894531 164.882812 142.007812 C 166.390625 142.152344 167.90625 142.292969 169.410156 142.511719 C 171.628906 142.835938 173.84375 143.226562 176.058594 143.589844 C 178.878906 144.050781 181.644531 144.765625 184.402344 145.488281 C 187.109375 146.203125 189.792969 146.988281 192.410156 147.980469 C 194.890625 148.921875 197.386719 149.8125 199.851562 150.792969 C 201.789062 151.5625 203.699219 152.414062 205.609375 153.261719 C 206.734375 153.761719 207.851562 154.289062 208.941406 154.863281 C 210.734375 155.804688 212.503906 156.796875 214.285156 157.761719 C 214.929688 158.113281 215.578125 158.445312 216.222656 158.792969 C 218.03125 159.753906 219.835938 160.71875 221.640625 161.6875 C 221.691406 161.714844 221.730469 161.765625 221.882812 161.90625 C 221.644531 161.863281 221.519531 161.855469 221.40625 161.816406 C 217.007812 160.347656 212.59375 158.921875 208.21875 157.382812 C 205.285156 156.351562 202.414062 155.152344 199.511719 154.03125 C 196.59375 152.898438 193.679688 151.746094 190.75 150.644531 C 187.644531 149.472656 184.449219 148.574219 181.242188 147.714844 C 178.625 147.015625 175.980469 146.433594 173.324219 145.914062 C 171.40625 145.535156 169.464844 145.289062 167.53125 144.992188 C 166.421875 144.824219 165.3125 144.640625 164.199219 144.519531 C 163.078125 144.390625 161.957031 144.328125 160.832031 144.246094 C 159.523438 144.15625 158.214844 144.070312 156.902344 143.992188 C 156.152344 143.945312 155.402344 143.890625 154.652344 143.875 C 152.457031 143.820312 150.257812 143.855469 148.070312 143.722656 C 144.949219 143.535156 141.832031 143.683594 138.714844 143.621094 C 138.511719 143.617188 138.304688 143.621094 138.097656 143.621094 C 138.078125 143.566406 138.058594 143.511719 138.039062 143.457031 " fill-opacity="1" fill-rule="nonzero"/></g><g fill="#264653" fill-opacity="1"><g transform="translate(123.572934, 258.651722)"><g><path d="M 15.9375 0.296875 C 15.8125 0.316406 15.675781 0.328125 15.53125 0.328125 C 15.394531 0.328125 15.25 0.335938 15.09375 0.359375 C 15.03125 0.359375 14.96875 0.363281 14.90625 0.375 C 14.84375 0.382812 14.773438 0.390625 14.703125 0.390625 C 14.515625 0.410156 14.320312 0.425781 14.125 0.4375 C 13.9375 0.445312 13.734375 0.460938 13.515625 0.484375 C 13.359375 0.503906 13.207031 0.503906 13.0625 0.484375 C 12.925781 0.460938 12.796875 0.410156 12.671875 0.328125 C 12.566406 0.253906 12.46875 0.164062 12.375 0.0625 C 12.226562 -0.257812 12.085938 -0.582031 11.953125 -0.90625 C 11.828125 -1.226562 11.734375 -1.5625 11.671875 -1.90625 C 11.648438 -2.007812 11.628906 -2.109375 11.609375 -2.203125 C 11.585938 -2.304688 11.578125 -2.398438 11.578125 -2.484375 C 11.535156 -2.617188 11.457031 -2.675781 11.34375 -2.65625 C 11.132812 -2.65625 10.914062 -2.65625 10.6875 -2.65625 C 10.457031 -2.65625 10.222656 -2.644531 9.984375 -2.625 C 9.753906 -2.601562 9.519531 -2.578125 9.28125 -2.546875 C 9.039062 -2.523438 8.800781 -2.503906 8.5625 -2.484375 C 8.28125 -2.460938 7.992188 -2.453125 7.703125 -2.453125 C 7.421875 -2.453125 7.128906 -2.453125 6.828125 -2.453125 C 6.628906 -2.453125 6.515625 -2.453125 6.484375 -2.453125 C 6.453125 -2.453125 6.414062 -2.332031 6.375 -2.09375 C 6.351562 -1.882812 6.3125 -1.675781 6.25 -1.46875 C 6.195312 -1.257812 6.117188 -1.0625 6.015625 -0.875 C 5.972656 -0.769531 5.921875 -0.65625 5.859375 -0.53125 C 5.804688 -0.414062 5.757812 -0.300781 5.71875 -0.1875 C 5.65625 0.0195312 5.515625 0.125 5.296875 0.125 C 5.171875 0.144531 5.046875 0.160156 4.921875 0.171875 C 4.804688 0.179688 4.6875 0.1875 4.5625 0.1875 C 4.144531 0.207031 3.726562 0.226562 3.3125 0.25 C 2.894531 0.28125 2.46875 0.304688 2.03125 0.328125 C 1.90625 0.328125 1.78125 0.320312 1.65625 0.3125 C 1.539062 0.300781 1.429688 0.285156 1.328125 0.265625 C 1.242188 0.265625 1.132812 0.21875 1 0.125 C 0.695312 -0.0390625 0.601562 -0.304688 0.71875 -0.671875 C 0.820312 -1.046875 0.925781 -1.425781 1.03125 -1.8125 C 1.144531 -2.195312 1.242188 -2.570312 1.328125 -2.9375 C 1.410156 -3.175781 1.488281 -3.421875 1.5625 -3.671875 C 1.644531 -3.921875 1.726562 -4.148438 1.8125 -4.359375 C 2 -5.054688 2.160156 -5.75 2.296875 -6.4375 C 2.421875 -7.1875 2.582031 -7.925781 2.78125 -8.65625 C 2.925781 -9.175781 3.070312 -9.691406 3.21875 -10.203125 C 3.375 -10.722656 3.53125 -11.253906 3.6875 -11.796875 C 3.832031 -12.296875 3.972656 -12.78125 4.109375 -13.25 C 4.253906 -13.726562 4.40625 -14.203125 4.5625 -14.671875 C 4.726562 -15.296875 4.898438 -15.925781 5.078125 -16.5625 C 5.265625 -17.195312 5.445312 -17.828125 5.625 -18.453125 C 5.664062 -18.566406 5.703125 -18.6875 5.734375 -18.8125 C 5.765625 -18.945312 5.789062 -19.078125 5.8125 -19.203125 C 5.925781 -19.585938 6.023438 -19.96875 6.109375 -20.34375 C 6.191406 -20.726562 6.289062 -21.113281 6.40625 -21.5 C 6.445312 -21.601562 6.492188 -21.710938 6.546875 -21.828125 C 6.597656 -21.953125 6.65625 -22.066406 6.71875 -22.171875 C 6.789062 -22.347656 6.910156 -22.4375 7.078125 -22.4375 C 7.234375 -22.457031 7.378906 -22.472656 7.515625 -22.484375 C 7.648438 -22.492188 7.796875 -22.507812 7.953125 -22.53125 C 8.234375 -22.570312 8.507812 -22.613281 8.78125 -22.65625 C 9.050781 -22.707031 9.3125 -22.742188 9.5625 -22.765625 C 9.675781 -22.785156 9.789062 -22.800781 9.90625 -22.8125 C 10.03125 -22.820312 10.144531 -22.816406 10.25 -22.796875 C 10.351562 -22.773438 10.453125 -22.757812 10.546875 -22.75 C 10.648438 -22.738281 10.742188 -22.742188 10.828125 -22.765625 C 11.171875 -22.785156 11.382812 -22.625 11.46875 -22.28125 C 11.539062 -22.0625 11.601562 -21.847656 11.65625 -21.640625 C 11.707031 -21.441406 11.753906 -21.234375 11.796875 -21.015625 C 11.816406 -20.972656 11.828125 -20.921875 11.828125 -20.859375 C 11.828125 -20.804688 11.835938 -20.757812 11.859375 -20.71875 C 11.972656 -20.4375 12.0625 -20.148438 12.125 -19.859375 C 12.1875 -19.566406 12.25 -19.273438 12.3125 -18.984375 C 12.351562 -18.722656 12.410156 -18.46875 12.484375 -18.21875 C 12.566406 -17.96875 12.640625 -17.710938 12.703125 -17.453125 C 12.835938 -17.046875 12.972656 -16.640625 13.109375 -16.234375 C 13.242188 -15.835938 13.367188 -15.425781 13.484375 -15 C 13.585938 -14.675781 13.6875 -14.34375 13.78125 -14 C 13.882812 -13.65625 13.976562 -13.3125 14.0625 -12.96875 C 14.257812 -12.1875 14.457031 -11.398438 14.65625 -10.609375 C 14.863281 -9.828125 15.078125 -9.050781 15.296875 -8.28125 C 15.398438 -7.863281 15.507812 -7.441406 15.625 -7.015625 C 15.75 -6.585938 15.851562 -6.15625 15.9375 -5.71875 C 15.976562 -5.476562 16.023438 -5.226562 16.078125 -4.96875 C 16.140625 -4.71875 16.179688 -4.472656 16.203125 -4.234375 C 16.242188 -4.085938 16.28125 -3.945312 16.3125 -3.8125 C 16.34375 -3.6875 16.367188 -3.546875 16.390625 -3.390625 C 16.429688 -3.203125 16.472656 -3.003906 16.515625 -2.796875 C 16.554688 -2.585938 16.601562 -2.378906 16.65625 -2.171875 C 16.695312 -2.015625 16.742188 -1.847656 16.796875 -1.671875 C 16.847656 -1.503906 16.894531 -1.332031 16.9375 -1.15625 C 16.976562 -1.050781 17.015625 -0.9375 17.046875 -0.8125 C 17.085938 -0.695312 17.117188 -0.585938 17.140625 -0.484375 C 17.160156 -0.335938 17.113281 -0.191406 17 -0.046875 C 16.894531 0.0859375 16.765625 0.175781 16.609375 0.21875 C 16.503906 0.25 16.390625 0.273438 16.265625 0.296875 C 16.148438 0.316406 16.039062 0.316406 15.9375 0.296875 Z M 8.953125 -13.9375 C 8.953125 -13.9375 8.945312 -13.9375 8.9375 -13.9375 C 8.925781 -13.9375 8.910156 -13.9375 8.890625 -13.9375 C 8.867188 -13.84375 8.84375 -13.738281 8.8125 -13.625 C 8.78125 -13.507812 8.753906 -13.394531 8.734375 -13.28125 C 8.597656 -12.695312 8.460938 -12.109375 8.328125 -11.515625 C 8.203125 -10.929688 8.085938 -10.335938 7.984375 -9.734375 C 7.921875 -9.429688 7.859375 -9.125 7.796875 -8.8125 C 7.742188 -8.5 7.695312 -8.191406 7.65625 -7.890625 C 7.632812 -7.753906 7.691406 -7.6875 7.828125 -7.6875 C 7.953125 -7.6875 8.070312 -7.6875 8.1875 -7.6875 C 8.3125 -7.6875 8.4375 -7.6875 8.5625 -7.6875 C 8.863281 -7.738281 9.171875 -7.769531 9.484375 -7.78125 C 9.796875 -7.789062 10.101562 -7.816406 10.40625 -7.859375 C 10.582031 -7.878906 10.679688 -7.90625 10.703125 -7.9375 C 10.722656 -7.96875 10.710938 -8.0625 10.671875 -8.21875 C 10.648438 -8.257812 10.640625 -8.289062 10.640625 -8.3125 C 10.640625 -8.332031 10.628906 -8.351562 10.609375 -8.375 C 10.585938 -8.519531 10.546875 -8.65625 10.484375 -8.78125 C 10.429688 -8.914062 10.382812 -9.0625 10.34375 -9.21875 C 10.257812 -9.644531 10.160156 -10.082031 10.046875 -10.53125 C 9.941406 -10.988281 9.816406 -11.421875 9.671875 -11.828125 C 9.578125 -12.066406 9.492188 -12.296875 9.421875 -12.515625 C 9.347656 -12.742188 9.269531 -12.976562 9.1875 -13.21875 C 9.132812 -13.332031 9.09375 -13.453125 9.0625 -13.578125 C 9.03125 -13.703125 8.992188 -13.820312 8.953125 -13.9375 Z M 8.953125 -13.9375 "/></g></g></g><g fill="#2a9d8f" fill-opacity="1"><g transform="translate(141.385433, 258.651722)"><g><path d="M 5.359375 -20.171875 C 5.359375 -19.785156 5.359375 -19.394531 5.359375 -19 C 5.359375 -18.613281 5.359375 -18.226562 5.359375 -17.84375 C 5.359375 -17.71875 5.351562 -17.59375 5.34375 -17.46875 C 5.332031 -17.351562 5.328125 -17.242188 5.328125 -17.140625 C 5.328125 -16.640625 5.332031 -16.132812 5.34375 -15.625 C 5.351562 -15.125 5.359375 -14.613281 5.359375 -14.09375 C 5.359375 -13.8125 5.351562 -13.53125 5.34375 -13.25 C 5.332031 -12.96875 5.328125 -12.675781 5.328125 -12.375 C 5.328125 -12.101562 5.332031 -11.816406 5.34375 -11.515625 C 5.351562 -11.210938 5.375 -10.910156 5.40625 -10.609375 C 5.40625 -10.390625 5.410156 -10.175781 5.421875 -9.96875 C 5.429688 -9.769531 5.4375 -9.5625 5.4375 -9.34375 C 5.4375 -8.757812 5.4375 -8.171875 5.4375 -7.578125 C 5.4375 -6.984375 5.425781 -6.382812 5.40625 -5.78125 C 5.40625 -5.550781 5.394531 -5.3125 5.375 -5.0625 C 5.363281 -4.8125 5.347656 -4.566406 5.328125 -4.328125 C 5.328125 -4.203125 5.320312 -4.066406 5.3125 -3.921875 C 5.300781 -3.785156 5.296875 -3.65625 5.296875 -3.53125 C 5.273438 -2.988281 5.257812 -2.441406 5.25 -1.890625 C 5.238281 -1.335938 5.222656 -0.796875 5.203125 -0.265625 C 5.203125 -0.210938 5.195312 -0.164062 5.1875 -0.125 C 5.175781 -0.0820312 5.171875 -0.0390625 5.171875 0 C 5.109375 0.21875 4.96875 0.328125 4.75 0.328125 C 4.28125 0.347656 3.800781 0.359375 3.3125 0.359375 C 2.832031 0.359375 2.34375 0.359375 1.84375 0.359375 C 1.820312 0.359375 1.796875 0.359375 1.765625 0.359375 C 1.734375 0.359375 1.695312 0.359375 1.65625 0.359375 C 1.414062 0.335938 1.296875 0.21875 1.296875 0 C 1.296875 -0.101562 1.300781 -0.195312 1.3125 -0.28125 C 1.320312 -0.375 1.328125 -0.460938 1.328125 -0.546875 C 1.328125 -0.867188 1.332031 -1.195312 1.34375 -1.53125 C 1.351562 -1.863281 1.347656 -2.191406 1.328125 -2.515625 C 1.285156 -3.878906 1.285156 -5.226562 1.328125 -6.5625 C 1.367188 -7.226562 1.390625 -7.890625 1.390625 -8.546875 C 1.390625 -9.203125 1.390625 -9.851562 1.390625 -10.5 C 1.410156 -11.382812 1.414062 -12.273438 1.40625 -13.171875 C 1.394531 -14.066406 1.390625 -14.957031 1.390625 -15.84375 C 1.390625 -16.007812 1.382812 -16.1875 1.375 -16.375 C 1.363281 -16.5625 1.359375 -16.738281 1.359375 -16.90625 C 1.359375 -17.332031 1.359375 -17.765625 1.359375 -18.203125 C 1.359375 -18.648438 1.359375 -19.082031 1.359375 -19.5 C 1.359375 -19.800781 1.351562 -20.109375 1.34375 -20.421875 C 1.332031 -20.734375 1.328125 -21.039062 1.328125 -21.34375 C 1.328125 -21.53125 1.332031 -21.71875 1.34375 -21.90625 C 1.351562 -22.101562 1.367188 -22.300781 1.390625 -22.5 C 1.410156 -22.757812 1.550781 -22.898438 1.8125 -22.921875 C 1.957031 -22.941406 2.09375 -22.957031 2.21875 -22.96875 C 2.351562 -22.976562 2.5 -22.984375 2.65625 -22.984375 C 2.882812 -22.984375 3.117188 -22.984375 3.359375 -22.984375 C 3.597656 -22.984375 3.828125 -22.984375 4.046875 -22.984375 C 4.148438 -22.984375 4.265625 -22.984375 4.390625 -22.984375 C 4.523438 -22.984375 4.65625 -22.992188 4.78125 -23.015625 C 5.144531 -23.035156 5.328125 -22.875 5.328125 -22.53125 C 5.328125 -22.144531 5.328125 -21.75 5.328125 -21.34375 C 5.328125 -20.945312 5.328125 -20.554688 5.328125 -20.171875 C 5.328125 -20.171875 5.335938 -20.171875 5.359375 -20.171875 Z M 5.359375 -20.171875 "/></g></g></g><g fill="#2a9d8f" fill-opacity="1"><g transform="translate(148.108047, 258.651722)"><g><path d="M 6.203125 -3.109375 C 6.179688 -2.628906 6.160156 -2.144531 6.140625 -1.65625 C 6.117188 -1.175781 6.097656 -0.695312 6.078125 -0.21875 C 6.054688 0.226562 5.832031 0.453125 5.40625 0.453125 C 5.164062 0.453125 4.925781 0.453125 4.6875 0.453125 C 4.445312 0.453125 4.207031 0.453125 3.96875 0.453125 C 3.738281 0.429688 3.503906 0.410156 3.265625 0.390625 C 3.023438 0.367188 2.785156 0.359375 2.546875 0.359375 C 2.460938 0.335938 2.375 0.328125 2.28125 0.328125 C 2.1875 0.328125 2.082031 0.328125 1.96875 0.328125 C 1.582031 0.328125 1.398438 0.128906 1.421875 -0.265625 C 1.460938 -1.441406 1.5 -2.625 1.53125 -3.8125 C 1.5625 -5 1.566406 -6.1875 1.546875 -7.375 C 1.546875 -8.644531 1.546875 -9.910156 1.546875 -11.171875 C 1.546875 -12.429688 1.546875 -13.6875 1.546875 -14.9375 C 1.523438 -15.34375 1.515625 -15.75 1.515625 -16.15625 C 1.515625 -16.570312 1.492188 -16.984375 1.453125 -17.390625 C 1.453125 -17.648438 1.4375 -17.910156 1.40625 -18.171875 C 1.375 -18.429688 1.347656 -18.6875 1.328125 -18.9375 C 1.328125 -19.113281 1.320312 -19.289062 1.3125 -19.46875 C 1.300781 -19.65625 1.304688 -19.835938 1.328125 -20.015625 C 1.347656 -20.378906 1.363281 -20.738281 1.375 -21.09375 C 1.382812 -21.445312 1.398438 -21.804688 1.421875 -22.171875 C 1.441406 -22.609375 1.691406 -22.835938 2.171875 -22.859375 C 2.492188 -22.878906 2.816406 -22.882812 3.140625 -22.875 C 3.460938 -22.863281 3.773438 -22.859375 4.078125 -22.859375 C 4.484375 -22.859375 4.878906 -22.859375 5.265625 -22.859375 C 5.648438 -22.859375 6.039062 -22.847656 6.4375 -22.828125 C 6.945312 -22.804688 7.460938 -22.789062 7.984375 -22.78125 C 8.503906 -22.769531 9.03125 -22.753906 9.5625 -22.734375 C 9.675781 -22.734375 9.78125 -22.734375 9.875 -22.734375 C 9.96875 -22.734375 10.0625 -22.734375 10.15625 -22.734375 C 10.34375 -22.734375 10.535156 -22.71875 10.734375 -22.6875 C 10.929688 -22.664062 11.125 -22.613281 11.3125 -22.53125 C 11.375 -22.507812 11.4375 -22.492188 11.5 -22.484375 C 11.570312 -22.472656 11.640625 -22.457031 11.703125 -22.4375 C 12.546875 -22.195312 13.222656 -21.742188 13.734375 -21.078125 C 13.773438 -21.015625 13.820312 -20.953125 13.875 -20.890625 C 13.9375 -20.835938 13.976562 -20.789062 14 -20.75 C 14.0625 -20.664062 14.117188 -20.585938 14.171875 -20.515625 C 14.222656 -20.441406 14.273438 -20.359375 14.328125 -20.265625 C 14.628906 -19.640625 14.867188 -18.992188 15.046875 -18.328125 C 15.234375 -17.660156 15.347656 -16.972656 15.390625 -16.265625 C 15.453125 -15.484375 15.484375 -14.707031 15.484375 -13.9375 C 15.503906 -13.3125 15.4375 -12.703125 15.28125 -12.109375 C 15.132812 -11.515625 14.941406 -10.9375 14.703125 -10.375 C 14.597656 -10.09375 14.453125 -9.816406 14.265625 -9.546875 C 14.085938 -9.285156 13.898438 -9.023438 13.703125 -8.765625 C 13.617188 -8.628906 13.515625 -8.515625 13.390625 -8.421875 C 13.273438 -8.328125 13.164062 -8.222656 13.0625 -8.109375 C 12.957031 -8.046875 12.9375 -7.960938 13 -7.859375 C 13.164062 -7.535156 13.332031 -7.210938 13.5 -6.890625 C 13.675781 -6.566406 13.84375 -6.242188 14 -5.921875 C 14.082031 -5.785156 14.148438 -5.644531 14.203125 -5.5 C 14.253906 -5.363281 14.316406 -5.222656 14.390625 -5.078125 C 14.554688 -4.691406 14.738281 -4.289062 14.9375 -3.875 C 15.0625 -3.53125 15.1875 -3.195312 15.3125 -2.875 C 15.445312 -2.550781 15.582031 -2.21875 15.71875 -1.875 C 15.757812 -1.789062 15.804688 -1.707031 15.859375 -1.625 C 15.910156 -1.550781 15.945312 -1.460938 15.96875 -1.359375 C 16.125 -1.078125 16.242188 -0.804688 16.328125 -0.546875 C 16.367188 -0.378906 16.332031 -0.210938 16.21875 -0.046875 C 16.113281 0.109375 15.976562 0.210938 15.8125 0.265625 C 15.71875 0.285156 15.628906 0.296875 15.546875 0.296875 C 15.460938 0.296875 15.367188 0.304688 15.265625 0.328125 C 14.785156 0.328125 14.3125 0.328125 13.84375 0.328125 C 13.382812 0.328125 12.921875 0.328125 12.453125 0.328125 C 12.359375 0.328125 12.257812 0.328125 12.15625 0.328125 C 12.050781 0.328125 11.941406 0.328125 11.828125 0.328125 C 11.660156 0.367188 11.539062 0.300781 11.46875 0.125 C 11.46875 0.125 11.445312 0.101562 11.40625 0.0625 C 11.195312 -0.34375 10.972656 -0.742188 10.734375 -1.140625 C 10.492188 -1.546875 10.265625 -1.953125 10.046875 -2.359375 C 9.835938 -2.804688 9.628906 -3.253906 9.421875 -3.703125 C 9.210938 -4.160156 9.015625 -4.609375 8.828125 -5.046875 C 8.742188 -5.253906 8.644531 -5.457031 8.53125 -5.65625 C 8.425781 -5.851562 8.320312 -6.046875 8.21875 -6.234375 C 8.1875 -6.367188 8.085938 -6.4375 7.921875 -6.4375 C 7.835938 -6.414062 7.734375 -6.398438 7.609375 -6.390625 C 7.492188 -6.378906 7.382812 -6.375 7.28125 -6.375 C 7.125 -6.351562 6.976562 -6.332031 6.84375 -6.3125 C 6.71875 -6.300781 6.582031 -6.285156 6.4375 -6.265625 C 6.34375 -6.265625 6.285156 -6.253906 6.265625 -6.234375 C 6.242188 -6.210938 6.234375 -6.148438 6.234375 -6.046875 C 6.210938 -5.660156 6.203125 -5.265625 6.203125 -4.859375 C 6.203125 -4.460938 6.203125 -4.0625 6.203125 -3.65625 C 6.203125 -3.570312 6.203125 -3.484375 6.203125 -3.390625 C 6.203125 -3.304688 6.203125 -3.210938 6.203125 -3.109375 Z M 6.265625 -14.515625 C 6.285156 -14.515625 6.296875 -14.515625 6.296875 -14.515625 C 6.296875 -13.972656 6.300781 -13.429688 6.3125 -12.890625 C 6.332031 -12.359375 6.34375 -11.820312 6.34375 -11.28125 C 6.34375 -11.195312 6.332031 -11.109375 6.3125 -11.015625 C 6.300781 -10.929688 6.3125 -10.835938 6.34375 -10.734375 C 6.34375 -10.597656 6.414062 -10.53125 6.5625 -10.53125 C 6.84375 -10.53125 7.125 -10.535156 7.40625 -10.546875 C 7.6875 -10.566406 7.957031 -10.597656 8.21875 -10.640625 C 8.625 -10.703125 9 -10.796875 9.34375 -10.921875 C 9.644531 -11.015625 9.878906 -11.234375 10.046875 -11.578125 C 10.078125 -11.722656 10.144531 -11.863281 10.25 -12 C 10.351562 -12.25 10.457031 -12.515625 10.5625 -12.796875 C 10.675781 -13.078125 10.742188 -13.367188 10.765625 -13.671875 C 10.828125 -14.109375 10.859375 -14.535156 10.859375 -14.953125 C 10.859375 -15.367188 10.847656 -15.785156 10.828125 -16.203125 C 10.828125 -16.671875 10.707031 -17.144531 10.46875 -17.625 C 10.382812 -17.851562 10.222656 -18.023438 9.984375 -18.140625 C 9.773438 -18.242188 9.539062 -18.328125 9.28125 -18.390625 C 9.019531 -18.453125 8.757812 -18.484375 8.5 -18.484375 C 8.15625 -18.484375 7.816406 -18.476562 7.484375 -18.46875 C 7.148438 -18.457031 6.8125 -18.453125 6.46875 -18.453125 C 6.351562 -18.453125 6.285156 -18.441406 6.265625 -18.421875 C 6.242188 -18.398438 6.234375 -18.335938 6.234375 -18.234375 C 6.234375 -17.628906 6.238281 -17.015625 6.25 -16.390625 C 6.257812 -15.765625 6.265625 -15.140625 6.265625 -14.515625 Z M 6.265625 -14.515625 "/></g></g></g><g fill="#264653" fill-opacity="1"><g transform="translate(165.760432, 258.651722)"><g><path d="M 17.0625 -12.125 C 17.0625 -11.738281 17.046875 -11.347656 17.015625 -10.953125 C 16.984375 -10.566406 16.945312 -10.179688 16.90625 -9.796875 C 16.882812 -9.554688 16.867188 -9.3125 16.859375 -9.0625 C 16.847656 -8.820312 16.820312 -8.582031 16.78125 -8.34375 C 16.71875 -7.738281 16.625 -7.140625 16.5 -6.546875 C 16.382812 -5.953125 16.21875 -5.375 16 -4.8125 C 15.9375 -4.644531 15.96875 -4.492188 16.09375 -4.359375 C 16.226562 -4.210938 16.351562 -4.0625 16.46875 -3.90625 C 16.59375 -3.757812 16.71875 -3.609375 16.84375 -3.453125 C 16.945312 -3.328125 17.046875 -3.195312 17.140625 -3.0625 C 17.242188 -2.9375 17.347656 -2.820312 17.453125 -2.71875 C 17.628906 -2.5625 17.785156 -2.390625 17.921875 -2.203125 C 18.066406 -2.023438 18.210938 -1.863281 18.359375 -1.71875 C 18.515625 -1.582031 18.59375 -1.394531 18.59375 -1.15625 C 18.59375 -0.925781 18.535156 -0.753906 18.421875 -0.640625 C 18.273438 -0.472656 18.117188 -0.289062 17.953125 -0.09375 C 17.796875 0.09375 17.628906 0.273438 17.453125 0.453125 C 17.304688 0.597656 17.15625 0.75 17 0.90625 C 16.851562 1.070312 16.691406 1.242188 16.515625 1.421875 C 16.472656 1.460938 16.421875 1.507812 16.359375 1.5625 C 16.296875 1.625 16.242188 1.675781 16.203125 1.71875 C 16.066406 1.800781 15.898438 1.835938 15.703125 1.828125 C 15.515625 1.816406 15.367188 1.757812 15.265625 1.65625 C 15.171875 1.539062 15.078125 1.441406 14.984375 1.359375 C 14.890625 1.273438 14.785156 1.1875 14.671875 1.09375 C 14.367188 0.84375 14.101562 0.519531 13.875 0.125 C 13.78125 0 13.695312 -0.125 13.625 -0.25 C 13.550781 -0.382812 13.457031 -0.515625 13.34375 -0.640625 C 13.300781 -0.753906 13.269531 -0.8125 13.25 -0.8125 C 13.226562 -0.8125 13.164062 -0.78125 13.0625 -0.71875 C 12.78125 -0.5 12.476562 -0.3125 12.15625 -0.15625 C 11.832031 -0.0078125 11.5 0.128906 11.15625 0.265625 C 10.695312 0.410156 10.210938 0.484375 9.703125 0.484375 C 9.378906 0.503906 9.054688 0.515625 8.734375 0.515625 C 8.410156 0.515625 8.085938 0.492188 7.765625 0.453125 C 7.367188 0.429688 6.957031 0.34375 6.53125 0.1875 C 6.507812 0.1875 6.488281 0.175781 6.46875 0.15625 C 6.1875 0.03125 5.90625 -0.0976562 5.625 -0.234375 C 5.34375 -0.378906 5.0625 -0.539062 4.78125 -0.71875 C 4.519531 -0.882812 4.289062 -1.070312 4.09375 -1.28125 C 3.90625 -1.5 3.726562 -1.726562 3.5625 -1.96875 C 2.820312 -2.914062 2.320312 -3.984375 2.0625 -5.171875 C 1.914062 -5.898438 1.769531 -6.625 1.625 -7.34375 C 1.488281 -8.070312 1.398438 -8.800781 1.359375 -9.53125 C 1.335938 -9.90625 1.328125 -10.28125 1.328125 -10.65625 C 1.328125 -11.03125 1.328125 -11.410156 1.328125 -11.796875 C 1.429688 -12.253906 1.503906 -12.71875 1.546875 -13.1875 C 1.585938 -13.664062 1.664062 -14.128906 1.78125 -14.578125 C 1.90625 -15.054688 2.03125 -15.523438 2.15625 -15.984375 C 2.289062 -16.453125 2.445312 -16.898438 2.625 -17.328125 C 2.726562 -17.585938 2.828125 -17.835938 2.921875 -18.078125 C 3.023438 -18.328125 3.140625 -18.570312 3.265625 -18.8125 C 3.410156 -19.113281 3.570312 -19.394531 3.75 -19.65625 C 3.925781 -19.914062 4.085938 -20.175781 4.234375 -20.4375 C 4.410156 -20.738281 4.617188 -20.988281 4.859375 -21.1875 C 5.109375 -21.394531 5.375 -21.597656 5.65625 -21.796875 C 5.738281 -21.835938 5.8125 -21.890625 5.875 -21.953125 C 5.945312 -22.015625 6.015625 -22.066406 6.078125 -22.109375 C 6.179688 -22.148438 6.273438 -22.203125 6.359375 -22.265625 C 6.453125 -22.335938 6.539062 -22.394531 6.625 -22.4375 C 6.726562 -22.476562 6.835938 -22.519531 6.953125 -22.5625 C 7.078125 -22.601562 7.195312 -22.660156 7.3125 -22.734375 C 7.539062 -22.835938 7.773438 -22.90625 8.015625 -22.9375 C 8.253906 -22.96875 8.503906 -22.992188 8.765625 -23.015625 C 9.128906 -23.035156 9.5 -23.035156 9.875 -23.015625 C 10.25 -22.992188 10.609375 -22.953125 10.953125 -22.890625 C 11.328125 -22.828125 11.679688 -22.75 12.015625 -22.65625 C 12.347656 -22.570312 12.664062 -22.429688 12.96875 -22.234375 C 13.289062 -22.023438 13.601562 -21.796875 13.90625 -21.546875 C 14.207031 -21.296875 14.472656 -21.019531 14.703125 -20.71875 C 15.003906 -20.3125 15.273438 -19.894531 15.515625 -19.46875 C 15.753906 -19.050781 15.957031 -18.617188 16.125 -18.171875 C 16.34375 -17.628906 16.507812 -17.066406 16.625 -16.484375 C 16.75 -15.898438 16.820312 -15.304688 16.84375 -14.703125 C 16.84375 -14.554688 16.859375 -14.398438 16.890625 -14.234375 C 16.921875 -14.078125 16.945312 -13.910156 16.96875 -13.734375 C 17.007812 -13.472656 17.03125 -13.207031 17.03125 -12.9375 C 17.03125 -12.675781 17.039062 -12.40625 17.0625 -12.125 Z M 12.640625 -8.828125 C 12.660156 -8.910156 12.671875 -8.976562 12.671875 -9.03125 C 12.671875 -9.082031 12.679688 -9.132812 12.703125 -9.1875 C 12.785156 -9.789062 12.832031 -10.378906 12.84375 -10.953125 C 12.851562 -11.535156 12.847656 -12.128906 12.828125 -12.734375 C 12.804688 -13.234375 12.757812 -13.71875 12.6875 -14.1875 C 12.613281 -14.664062 12.519531 -15.140625 12.40625 -15.609375 C 12.28125 -16.171875 12.023438 -16.722656 11.640625 -17.265625 C 11.523438 -17.429688 11.382812 -17.566406 11.21875 -17.671875 C 11.0625 -17.785156 10.898438 -17.882812 10.734375 -17.96875 C 10.453125 -18.082031 10.175781 -18.164062 9.90625 -18.21875 C 9.632812 -18.269531 9.359375 -18.296875 9.078125 -18.296875 C 8.753906 -18.316406 8.453125 -18.269531 8.171875 -18.15625 C 7.898438 -18.050781 7.644531 -17.914062 7.40625 -17.75 C 7.25 -17.644531 7.128906 -17.507812 7.046875 -17.34375 C 6.960938 -17.1875 6.890625 -17.019531 6.828125 -16.84375 C 6.671875 -16.5 6.554688 -16.140625 6.484375 -15.765625 C 6.410156 -15.398438 6.328125 -15.035156 6.234375 -14.671875 C 6.148438 -14.328125 6.085938 -13.96875 6.046875 -13.59375 C 6.003906 -13.21875 5.972656 -12.847656 5.953125 -12.484375 C 5.929688 -11.941406 5.90625 -11.390625 5.875 -10.828125 C 5.851562 -10.265625 5.890625 -9.707031 5.984375 -9.15625 C 6.066406 -8.59375 6.164062 -8.023438 6.28125 -7.453125 C 6.40625 -6.878906 6.597656 -6.320312 6.859375 -5.78125 C 6.960938 -5.570312 7.082031 -5.363281 7.21875 -5.15625 C 7.363281 -4.945312 7.546875 -4.789062 7.765625 -4.6875 C 7.847656 -4.664062 7.925781 -4.632812 8 -4.59375 C 8.070312 -4.550781 8.15625 -4.507812 8.25 -4.46875 C 8.820312 -4.25 9.378906 -4.234375 9.921875 -4.421875 C 10.035156 -4.472656 10.09375 -4.507812 10.09375 -4.53125 C 10.09375 -4.550781 10.066406 -4.601562 10.015625 -4.6875 C 9.691406 -5.164062 9.367188 -5.628906 9.046875 -6.078125 C 8.722656 -6.523438 8.410156 -6.988281 8.109375 -7.46875 C 7.921875 -7.769531 7.96875 -8.019531 8.25 -8.21875 C 8.476562 -8.382812 8.703125 -8.550781 8.921875 -8.71875 C 9.140625 -8.894531 9.351562 -9.0625 9.5625 -9.21875 C 9.675781 -9.300781 9.773438 -9.382812 9.859375 -9.46875 C 9.941406 -9.550781 10.03125 -9.628906 10.125 -9.703125 C 10.269531 -9.804688 10.414062 -9.90625 10.5625 -10 C 10.71875 -10.101562 10.859375 -10.226562 10.984375 -10.375 C 11.097656 -10.476562 11.222656 -10.519531 11.359375 -10.5 C 11.503906 -10.476562 11.617188 -10.394531 11.703125 -10.25 C 11.828125 -10.03125 11.953125 -9.816406 12.078125 -9.609375 C 12.210938 -9.410156 12.359375 -9.203125 12.515625 -8.984375 C 12.515625 -8.960938 12.554688 -8.910156 12.640625 -8.828125 Z M 12.640625 -8.828125 "/></g></g></g><g fill="#2a9d8f" fill-opacity="1"><g transform="translate(185.67059, 258.651722)"><g><path d="M 1.359375 -15.1875 C 1.398438 -16.1875 1.425781 -17.175781 1.4375 -18.15625 C 1.445312 -19.132812 1.460938 -20.117188 1.484375 -21.109375 C 1.484375 -21.304688 1.492188 -21.503906 1.515625 -21.703125 C 1.535156 -21.910156 1.546875 -22.125 1.546875 -22.34375 C 1.566406 -22.6875 1.765625 -22.835938 2.140625 -22.796875 C 2.285156 -22.796875 2.4375 -22.796875 2.59375 -22.796875 C 2.757812 -22.796875 2.921875 -22.804688 3.078125 -22.828125 C 3.222656 -22.828125 3.363281 -22.828125 3.5 -22.828125 C 3.644531 -22.828125 3.789062 -22.828125 3.9375 -22.828125 C 4.132812 -22.828125 4.320312 -22.828125 4.5 -22.828125 C 4.6875 -22.828125 4.878906 -22.828125 5.078125 -22.828125 C 5.203125 -22.828125 5.296875 -22.738281 5.359375 -22.5625 C 5.390625 -22.476562 5.410156 -22.378906 5.421875 -22.265625 C 5.429688 -22.160156 5.4375 -22.054688 5.4375 -21.953125 C 5.4375 -21.390625 5.4375 -20.820312 5.4375 -20.25 C 5.4375 -19.675781 5.425781 -19.113281 5.40625 -18.5625 C 5.40625 -17.695312 5.367188 -16.820312 5.296875 -15.9375 C 5.273438 -15.570312 5.253906 -15.195312 5.234375 -14.8125 C 5.210938 -14.4375 5.191406 -14.066406 5.171875 -13.703125 C 5.148438 -13.234375 5.132812 -12.765625 5.125 -12.296875 C 5.113281 -11.835938 5.109375 -11.359375 5.109375 -10.859375 C 5.109375 -10.515625 5.113281 -10.160156 5.125 -9.796875 C 5.132812 -9.429688 5.140625 -9.066406 5.140625 -8.703125 C 5.160156 -7.703125 5.3125 -6.695312 5.59375 -5.6875 C 5.675781 -5.34375 5.835938 -5.007812 6.078125 -4.6875 C 6.359375 -4.300781 6.722656 -4.039062 7.171875 -3.90625 C 7.242188 -3.882812 7.316406 -3.867188 7.390625 -3.859375 C 7.460938 -3.847656 7.53125 -3.820312 7.59375 -3.78125 C 7.832031 -3.695312 8.054688 -3.660156 8.265625 -3.671875 C 8.484375 -3.679688 8.703125 -3.71875 8.921875 -3.78125 C 9.003906 -3.800781 9.085938 -3.820312 9.171875 -3.84375 C 9.265625 -3.863281 9.351562 -3.894531 9.4375 -3.9375 C 9.695312 -4.070312 9.90625 -4.25 10.0625 -4.46875 C 10.226562 -4.695312 10.351562 -4.941406 10.4375 -5.203125 C 10.65625 -5.867188 10.816406 -6.570312 10.921875 -7.3125 C 11.015625 -7.863281 11.09375 -8.410156 11.15625 -8.953125 C 11.21875 -9.492188 11.25 -10.035156 11.25 -10.578125 C 11.25 -10.804688 11.265625 -11.046875 11.296875 -11.296875 C 11.328125 -11.546875 11.351562 -11.789062 11.375 -12.03125 C 11.394531 -12.28125 11.40625 -12.539062 11.40625 -12.8125 C 11.40625 -13.082031 11.40625 -13.347656 11.40625 -13.609375 C 11.425781 -14.679688 11.4375 -15.75 11.4375 -16.8125 C 11.4375 -17.882812 11.4375 -18.953125 11.4375 -20.015625 C 11.4375 -20.378906 11.441406 -20.734375 11.453125 -21.078125 C 11.460938 -21.421875 11.484375 -21.765625 11.515625 -22.109375 C 11.535156 -22.523438 11.726562 -22.742188 12.09375 -22.765625 C 12.519531 -22.785156 12.941406 -22.804688 13.359375 -22.828125 C 13.785156 -22.847656 14.203125 -22.867188 14.609375 -22.890625 C 14.648438 -22.890625 14.6875 -22.890625 14.71875 -22.890625 C 14.757812 -22.890625 14.800781 -22.890625 14.84375 -22.890625 C 15.164062 -22.890625 15.328125 -22.738281 15.328125 -22.4375 C 15.328125 -22.351562 15.328125 -22.269531 15.328125 -22.1875 C 15.328125 -22.113281 15.328125 -22.035156 15.328125 -21.953125 C 15.304688 -20.785156 15.289062 -19.625 15.28125 -18.46875 C 15.269531 -17.320312 15.265625 -16.164062 15.265625 -15 C 15.234375 -14.394531 15.21875 -13.800781 15.21875 -13.21875 C 15.21875 -12.632812 15.207031 -12.039062 15.1875 -11.4375 C 15.164062 -10.644531 15.125 -9.84375 15.0625 -9.03125 C 15 -8.226562 14.90625 -7.414062 14.78125 -6.59375 C 14.601562 -5.601562 14.375 -4.644531 14.09375 -3.71875 C 13.988281 -3.351562 13.847656 -3 13.671875 -2.65625 C 13.503906 -2.3125 13.300781 -1.976562 13.0625 -1.65625 C 12.882812 -1.394531 12.675781 -1.171875 12.4375 -0.984375 C 12.207031 -0.804688 11.960938 -0.628906 11.703125 -0.453125 C 11.316406 -0.234375 10.90625 -0.0390625 10.46875 0.125 C 10.039062 0.300781 9.601562 0.410156 9.15625 0.453125 C 8.851562 0.492188 8.546875 0.503906 8.234375 0.484375 C 7.921875 0.460938 7.613281 0.441406 7.3125 0.421875 C 7.15625 0.398438 7.003906 0.378906 6.859375 0.359375 C 6.722656 0.335938 6.59375 0.316406 6.46875 0.296875 C 5.5 0.0351562 4.65625 -0.460938 3.9375 -1.203125 C 3.789062 -1.367188 3.644531 -1.535156 3.5 -1.703125 C 3.363281 -1.878906 3.242188 -2.054688 3.140625 -2.234375 C 2.210938 -3.722656 1.660156 -5.347656 1.484375 -7.109375 C 1.460938 -7.410156 1.441406 -7.695312 1.421875 -7.96875 C 1.398438 -8.238281 1.378906 -8.515625 1.359375 -8.796875 C 1.335938 -9.160156 1.320312 -9.535156 1.3125 -9.921875 C 1.300781 -10.304688 1.304688 -10.6875 1.328125 -11.0625 C 1.328125 -11.75 1.332031 -12.4375 1.34375 -13.125 C 1.351562 -13.8125 1.359375 -14.5 1.359375 -15.1875 Z M 1.359375 -15.1875 "/></g></g></g><g fill="#2a9d8f" fill-opacity="1"><g transform="translate(202.283199, 258.651722)"><g><path d="M 15.9375 0.296875 C 15.8125 0.316406 15.675781 0.328125 15.53125 0.328125 C 15.394531 0.328125 15.25 0.335938 15.09375 0.359375 C 15.03125 0.359375 14.96875 0.363281 14.90625 0.375 C 14.84375 0.382812 14.773438 0.390625 14.703125 0.390625 C 14.515625 0.410156 14.320312 0.425781 14.125 0.4375 C 13.9375 0.445312 13.734375 0.460938 13.515625 0.484375 C 13.359375 0.503906 13.207031 0.503906 13.0625 0.484375 C 12.925781 0.460938 12.796875 0.410156 12.671875 0.328125 C 12.566406 0.253906 12.46875 0.164062 12.375 0.0625 C 12.226562 -0.257812 12.085938 -0.582031 11.953125 -0.90625 C 11.828125 -1.226562 11.734375 -1.5625 11.671875 -1.90625 C 11.648438 -2.007812 11.628906 -2.109375 11.609375 -2.203125 C 11.585938 -2.304688 11.578125 -2.398438 11.578125 -2.484375 C 11.535156 -2.617188 11.457031 -2.675781 11.34375 -2.65625 C 11.132812 -2.65625 10.914062 -2.65625 10.6875 -2.65625 C 10.457031 -2.65625 10.222656 -2.644531 9.984375 -2.625 C 9.753906 -2.601562 9.519531 -2.578125 9.28125 -2.546875 C 9.039062 -2.523438 8.800781 -2.503906 8.5625 -2.484375 C 8.28125 -2.460938 7.992188 -2.453125 7.703125 -2.453125 C 7.421875 -2.453125 7.128906 -2.453125 6.828125 -2.453125 C 6.628906 -2.453125 6.515625 -2.453125 6.484375 -2.453125 C 6.453125 -2.453125 6.414062 -2.332031 6.375 -2.09375 C 6.351562 -1.882812 6.3125 -1.675781 6.25 -1.46875 C 6.195312 -1.257812 6.117188 -1.0625 6.015625 -0.875 C 5.972656 -0.769531 5.921875 -0.65625 5.859375 -0.53125 C 5.804688 -0.414062 5.757812 -0.300781 5.71875 -0.1875 C 5.65625 0.0195312 5.515625 0.125 5.296875 0.125 C 5.171875 0.144531 5.046875 0.160156 4.921875 0.171875 C 4.804688 0.179688 4.6875 0.1875 4.5625 0.1875 C 4.144531 0.207031 3.726562 0.226562 3.3125 0.25 C 2.894531 0.28125 2.46875 0.304688 2.03125 0.328125 C 1.90625 0.328125 1.78125 0.320312 1.65625 0.3125 C 1.539062 0.300781 1.429688 0.285156 1.328125 0.265625 C 1.242188 0.265625 1.132812 0.21875 1 0.125 C 0.695312 -0.0390625 0.601562 -0.304688 0.71875 -0.671875 C 0.820312 -1.046875 0.925781 -1.425781 1.03125 -1.8125 C 1.144531 -2.195312 1.242188 -2.570312 1.328125 -2.9375 C 1.410156 -3.175781 1.488281 -3.421875 1.5625 -3.671875 C 1.644531 -3.921875 1.726562 -4.148438 1.8125 -4.359375 C 2 -5.054688 2.160156 -5.75 2.296875 -6.4375 C 2.421875 -7.1875 2.582031 -7.925781 2.78125 -8.65625 C 2.925781 -9.175781 3.070312 -9.691406 3.21875 -10.203125 C 3.375 -10.722656 3.53125 -11.253906 3.6875 -11.796875 C 3.832031 -12.296875 3.972656 -12.78125 4.109375 -13.25 C 4.253906 -13.726562 4.40625 -14.203125 4.5625 -14.671875 C 4.726562 -15.296875 4.898438 -15.925781 5.078125 -16.5625 C 5.265625 -17.195312 5.445312 -17.828125 5.625 -18.453125 C 5.664062 -18.566406 5.703125 -18.6875 5.734375 -18.8125 C 5.765625 -18.945312 5.789062 -19.078125 5.8125 -19.203125 C 5.925781 -19.585938 6.023438 -19.96875 6.109375 -20.34375 C 6.191406 -20.726562 6.289062 -21.113281 6.40625 -21.5 C 6.445312 -21.601562 6.492188 -21.710938 6.546875 -21.828125 C 6.597656 -21.953125 6.65625 -22.066406 6.71875 -22.171875 C 6.789062 -22.347656 6.910156 -22.4375 7.078125 -22.4375 C 7.234375 -22.457031 7.378906 -22.472656 7.515625 -22.484375 C 7.648438 -22.492188 7.796875 -22.507812 7.953125 -22.53125 C 8.234375 -22.570312 8.507812 -22.613281 8.78125 -22.65625 C 9.050781 -22.707031 9.3125 -22.742188 9.5625 -22.765625 C 9.675781 -22.785156 9.789062 -22.800781 9.90625 -22.8125 C 10.03125 -22.820312 10.144531 -22.816406 10.25 -22.796875 C 10.351562 -22.773438 10.453125 -22.757812 10.546875 -22.75 C 10.648438 -22.738281 10.742188 -22.742188 10.828125 -22.765625 C 11.171875 -22.785156 11.382812 -22.625 11.46875 -22.28125 C 11.539062 -22.0625 11.601562 -21.847656 11.65625 -21.640625 C 11.707031 -21.441406 11.753906 -21.234375 11.796875 -21.015625 C 11.816406 -20.972656 11.828125 -20.921875 11.828125 -20.859375 C 11.828125 -20.804688 11.835938 -20.757812 11.859375 -20.71875 C 11.972656 -20.4375 12.0625 -20.148438 12.125 -19.859375 C 12.1875 -19.566406 12.25 -19.273438 12.3125 -18.984375 C 12.351562 -18.722656 12.410156 -18.46875 12.484375 -18.21875 C 12.566406 -17.96875 12.640625 -17.710938 12.703125 -17.453125 C 12.835938 -17.046875 12.972656 -16.640625 13.109375 -16.234375 C 13.242188 -15.835938 13.367188 -15.425781 13.484375 -15 C 13.585938 -14.675781 13.6875 -14.34375 13.78125 -14 C 13.882812 -13.65625 13.976562 -13.3125 14.0625 -12.96875 C 14.257812 -12.1875 14.457031 -11.398438 14.65625 -10.609375 C 14.863281 -9.828125 15.078125 -9.050781 15.296875 -8.28125 C 15.398438 -7.863281 15.507812 -7.441406 15.625 -7.015625 C 15.75 -6.585938 15.851562 -6.15625 15.9375 -5.71875 C 15.976562 -5.476562 16.023438 -5.226562 16.078125 -4.96875 C 16.140625 -4.71875 16.179688 -4.472656 16.203125 -4.234375 C 16.242188 -4.085938 16.28125 -3.945312 16.3125 -3.8125 C 16.34375 -3.6875 16.367188 -3.546875 16.390625 -3.390625 C 16.429688 -3.203125 16.472656 -3.003906 16.515625 -2.796875 C 16.554688 -2.585938 16.601562 -2.378906 16.65625 -2.171875 C 16.695312 -2.015625 16.742188 -1.847656 16.796875 -1.671875 C 16.847656 -1.503906 16.894531 -1.332031 16.9375 -1.15625 C 16.976562 -1.050781 17.015625 -0.9375 17.046875 -0.8125 C 17.085938 -0.695312 17.117188 -0.585938 17.140625 -0.484375 C 17.160156 -0.335938 17.113281 -0.191406 17 -0.046875 C 16.894531 0.0859375 16.765625 0.175781 16.609375 0.21875 C 16.503906 0.25 16.390625 0.273438 16.265625 0.296875 C 16.148438 0.316406 16.039062 0.316406 15.9375 0.296875 Z M 8.953125 -13.9375 C 8.953125 -13.9375 8.945312 -13.9375 8.9375 -13.9375 C 8.925781 -13.9375 8.910156 -13.9375 8.890625 -13.9375 C 8.867188 -13.84375 8.84375 -13.738281 8.8125 -13.625 C 8.78125 -13.507812 8.753906 -13.394531 8.734375 -13.28125 C 8.597656 -12.695312 8.460938 -12.109375 8.328125 -11.515625 C 8.203125 -10.929688 8.085938 -10.335938 7.984375 -9.734375 C 7.921875 -9.429688 7.859375 -9.125 7.796875 -8.8125 C 7.742188 -8.5 7.695312 -8.191406 7.65625 -7.890625 C 7.632812 -7.753906 7.691406 -7.6875 7.828125 -7.6875 C 7.953125 -7.6875 8.070312 -7.6875 8.1875 -7.6875 C 8.3125 -7.6875 8.4375 -7.6875 8.5625 -7.6875 C 8.863281 -7.738281 9.171875 -7.769531 9.484375 -7.78125 C 9.796875 -7.789062 10.101562 -7.816406 10.40625 -7.859375 C 10.582031 -7.878906 10.679688 -7.90625 10.703125 -7.9375 C 10.722656 -7.96875 10.710938 -8.0625 10.671875 -8.21875 C 10.648438 -8.257812 10.640625 -8.289062 10.640625 -8.3125 C 10.640625 -8.332031 10.628906 -8.351562 10.609375 -8.375 C 10.585938 -8.519531 10.546875 -8.65625 10.484375 -8.78125 C 10.429688 -8.914062 10.382812 -9.0625 10.34375 -9.21875 C 10.257812 -9.644531 10.160156 -10.082031 10.046875 -10.53125 C 9.941406 -10.988281 9.816406 -11.421875 9.671875 -11.828125 C 9.578125 -12.066406 9.492188 -12.296875 9.421875 -12.515625 C 9.347656 -12.742188 9.269531 -12.976562 9.1875 -13.21875 C 9.132812 -13.332031 9.09375 -13.453125 9.0625 -13.578125 C 9.03125 -13.703125 8.992188 -13.820312 8.953125 -13.9375 Z M 8.953125 -13.9375 "/></g></g></g><g fill="#2a9d8f" fill-opacity="1"><g transform="translate(220.091658, 258.651722)"><g><path d="M 5.5625 -11.671875 C 5.5625 -11.628906 5.5625 -11.59375 5.5625 -11.5625 C 5.5625 -11.53125 5.5625 -11.488281 5.5625 -11.4375 C 5.5625 -10.601562 5.5625 -9.757812 5.5625 -8.90625 C 5.5625 -8.050781 5.550781 -7.207031 5.53125 -6.375 C 5.53125 -5.832031 5.519531 -5.289062 5.5 -4.75 C 5.476562 -4.207031 5.46875 -3.671875 5.46875 -3.140625 C 5.46875 -2.722656 5.472656 -2.316406 5.484375 -1.921875 C 5.492188 -1.523438 5.507812 -1.125 5.53125 -0.71875 C 5.53125 -0.363281 5.398438 -0.125 5.140625 0 C 4.898438 0.101562 4.628906 0.175781 4.328125 0.21875 C 3.941406 0.25 3.554688 0.25 3.171875 0.21875 C 2.785156 0.195312 2.394531 0.175781 2 0.15625 C 1.71875 0.15625 1.554688 0.00390625 1.515625 -0.296875 C 1.492188 -0.378906 1.484375 -0.453125 1.484375 -0.515625 C 1.484375 -0.578125 1.484375 -0.65625 1.484375 -0.75 C 1.484375 -1.882812 1.488281 -3.039062 1.5 -4.21875 C 1.507812 -5.394531 1.515625 -6.5625 1.515625 -7.71875 C 1.492188 -8.320312 1.476562 -8.929688 1.46875 -9.546875 C 1.457031 -10.160156 1.441406 -10.769531 1.421875 -11.375 C 1.421875 -12.5625 1.421875 -13.75 1.421875 -14.9375 C 1.421875 -16.125 1.421875 -17.304688 1.421875 -18.484375 C 1.421875 -18.921875 1.414062 -19.34375 1.40625 -19.75 C 1.394531 -20.15625 1.390625 -20.566406 1.390625 -20.984375 C 1.367188 -21.085938 1.351562 -21.191406 1.34375 -21.296875 C 1.332031 -21.410156 1.328125 -21.507812 1.328125 -21.59375 C 1.304688 -21.675781 1.296875 -21.757812 1.296875 -21.84375 C 1.296875 -21.9375 1.296875 -22.023438 1.296875 -22.109375 C 1.296875 -22.328125 1.347656 -22.503906 1.453125 -22.640625 C 1.554688 -22.785156 1.6875 -22.898438 1.84375 -22.984375 C 1.882812 -23.003906 1.957031 -23.015625 2.0625 -23.015625 C 2.238281 -23.015625 2.410156 -23.015625 2.578125 -23.015625 C 2.753906 -23.015625 2.921875 -23.015625 3.078125 -23.015625 C 3.179688 -23.015625 3.285156 -23.015625 3.390625 -23.015625 C 3.503906 -23.015625 3.613281 -23.015625 3.71875 -23.015625 C 3.914062 -22.992188 4.109375 -22.976562 4.296875 -22.96875 C 4.492188 -22.957031 4.6875 -22.941406 4.875 -22.921875 C 5.132812 -22.878906 5.320312 -22.726562 5.4375 -22.46875 C 5.539062 -22.207031 5.660156 -21.953125 5.796875 -21.703125 C 5.941406 -21.460938 6.054688 -21.210938 6.140625 -20.953125 C 6.335938 -20.453125 6.554688 -19.960938 6.796875 -19.484375 C 7.046875 -19.015625 7.28125 -18.546875 7.5 -18.078125 C 7.863281 -17.316406 8.238281 -16.5625 8.625 -15.8125 C 9.019531 -15.070312 9.421875 -14.328125 9.828125 -13.578125 C 9.953125 -13.335938 10.070312 -13.09375 10.1875 -12.84375 C 10.3125 -12.601562 10.453125 -12.363281 10.609375 -12.125 C 10.816406 -11.71875 11.039062 -11.3125 11.28125 -10.90625 C 11.519531 -10.507812 11.75 -10.109375 11.96875 -9.703125 C 11.96875 -9.679688 12 -9.644531 12.0625 -9.59375 C 12.0625 -9.644531 12.066406 -9.6875 12.078125 -9.71875 C 12.085938 -9.75 12.09375 -9.773438 12.09375 -9.796875 C 12.09375 -10.890625 12.09375 -11.992188 12.09375 -13.109375 C 12.09375 -14.222656 12.082031 -15.335938 12.0625 -16.453125 C 12.0625 -16.992188 12.035156 -17.523438 11.984375 -18.046875 C 11.941406 -18.578125 11.910156 -19.113281 11.890625 -19.65625 C 11.867188 -20.101562 11.859375 -20.554688 11.859375 -21.015625 C 11.859375 -21.484375 11.859375 -21.957031 11.859375 -22.4375 C 11.859375 -22.632812 11.976562 -22.785156 12.21875 -22.890625 C 12.457031 -22.972656 12.726562 -23.015625 13.03125 -23.015625 C 13.3125 -22.992188 13.585938 -22.976562 13.859375 -22.96875 C 14.140625 -22.957031 14.421875 -22.941406 14.703125 -22.921875 C 14.835938 -22.921875 14.972656 -22.921875 15.109375 -22.921875 C 15.253906 -22.921875 15.378906 -22.898438 15.484375 -22.859375 C 15.546875 -22.859375 15.625 -22.835938 15.71875 -22.796875 C 15.863281 -22.722656 15.9375 -22.601562 15.9375 -22.4375 C 15.914062 -21.769531 15.929688 -21.09375 15.984375 -20.40625 C 16.035156 -19.726562 16.070312 -19.046875 16.09375 -18.359375 C 16.164062 -16.546875 16.203125 -14.710938 16.203125 -12.859375 C 16.222656 -11.804688 16.226562 -10.75 16.21875 -9.6875 C 16.207031 -8.632812 16.210938 -7.582031 16.234375 -6.53125 C 16.234375 -5.863281 16.25 -5.207031 16.28125 -4.5625 C 16.3125 -3.914062 16.335938 -3.257812 16.359375 -2.59375 C 16.359375 -2.289062 16.359375 -1.972656 16.359375 -1.640625 C 16.359375 -1.316406 16.367188 -1.007812 16.390625 -0.71875 C 16.390625 -0.582031 16.335938 -0.441406 16.234375 -0.296875 C 15.972656 -0.015625 15.679688 0.125 15.359375 0.125 C 15.179688 0.101562 15.003906 0.101562 14.828125 0.125 C 14.660156 0.144531 14.492188 0.164062 14.328125 0.1875 C 14.109375 0.1875 13.894531 0.191406 13.6875 0.203125 C 13.488281 0.210938 13.28125 0.21875 13.0625 0.21875 C 12.976562 0.21875 12.878906 0.1875 12.765625 0.125 C 12.722656 0.0625 12.671875 0 12.609375 -0.0625 C 12.546875 -0.125 12.492188 -0.191406 12.453125 -0.265625 C 12.234375 -0.628906 12.015625 -0.976562 11.796875 -1.3125 C 11.578125 -1.644531 11.363281 -1.984375 11.15625 -2.328125 C 11.070312 -2.523438 10.976562 -2.71875 10.875 -2.90625 C 10.78125 -3.101562 10.679688 -3.3125 10.578125 -3.53125 C 10.421875 -3.851562 10.234375 -4.160156 10.015625 -4.453125 C 9.804688 -4.753906 9.59375 -5.070312 9.375 -5.40625 C 9.175781 -5.695312 8.984375 -5.988281 8.796875 -6.28125 C 8.617188 -6.570312 8.4375 -6.867188 8.25 -7.171875 C 7.988281 -7.609375 7.726562 -8.039062 7.46875 -8.46875 C 7.207031 -8.894531 6.957031 -9.328125 6.71875 -9.765625 C 6.550781 -10.066406 6.363281 -10.367188 6.15625 -10.671875 C 5.945312 -10.972656 5.78125 -11.296875 5.65625 -11.640625 C 5.65625 -11.660156 5.648438 -11.671875 5.640625 -11.671875 C 5.628906 -11.671875 5.625 -11.679688 5.625 -11.703125 C 5.601562 -11.703125 5.59375 -11.695312 5.59375 -11.6875 C 5.59375 -11.675781 5.582031 -11.671875 5.5625 -11.671875 Z M 5.5625 -11.671875 "/></g></g></g><g fill="#2a9d8f" fill-opacity="1"><g transform="translate(237.770844, 258.651722)"><g><path d="M 8.703125 -10.375 C 8.703125 -9.1875 8.691406 -8.007812 8.671875 -6.84375 C 8.660156 -5.6875 8.644531 -4.515625 8.625 -3.328125 C 8.625 -2.804688 8.613281 -2.285156 8.59375 -1.765625 C 8.570312 -1.253906 8.550781 -0.738281 8.53125 -0.21875 C 8.53125 -0.03125 8.410156 0.101562 8.171875 0.1875 C 7.765625 0.28125 7.363281 0.335938 6.96875 0.359375 C 6.570312 0.378906 6.15625 0.359375 5.71875 0.296875 C 5.632812 0.273438 5.539062 0.265625 5.4375 0.265625 C 5.34375 0.265625 5.253906 0.25 5.171875 0.21875 C 4.765625 0.15625 4.5625 -0.0664062 4.5625 -0.453125 C 4.5625 -1.015625 4.5625 -1.566406 4.5625 -2.109375 C 4.5625 -2.660156 4.5625 -3.207031 4.5625 -3.75 C 4.5625 -4.632812 4.550781 -5.507812 4.53125 -6.375 C 4.507812 -7.25 4.507812 -8.128906 4.53125 -9.015625 C 4.53125 -9.816406 4.546875 -10.617188 4.578125 -11.421875 C 4.609375 -12.234375 4.644531 -13.039062 4.6875 -13.84375 C 4.726562 -14.394531 4.75 -14.953125 4.75 -15.515625 C 4.75 -16.078125 4.75 -16.628906 4.75 -17.171875 C 4.75 -17.398438 4.75 -17.617188 4.75 -17.828125 C 4.75 -18.035156 4.738281 -18.242188 4.71875 -18.453125 C 4.71875 -18.566406 4.710938 -18.628906 4.703125 -18.640625 C 4.691406 -18.648438 4.632812 -18.65625 4.53125 -18.65625 C 3.988281 -18.65625 3.445312 -18.65625 2.90625 -18.65625 C 2.363281 -18.65625 1.816406 -18.632812 1.265625 -18.59375 C 1.222656 -18.59375 1.171875 -18.59375 1.109375 -18.59375 C 1.054688 -18.59375 1.007812 -18.59375 0.96875 -18.59375 C 0.84375 -18.59375 0.757812 -18.675781 0.71875 -18.84375 C 0.6875 -18.976562 0.664062 -19.109375 0.65625 -19.234375 C 0.644531 -19.359375 0.640625 -19.5 0.640625 -19.65625 C 0.640625 -20.125 0.648438 -20.585938 0.671875 -21.046875 C 0.703125 -21.515625 0.738281 -21.988281 0.78125 -22.46875 C 0.800781 -22.726562 0.941406 -22.867188 1.203125 -22.890625 C 1.585938 -22.910156 1.976562 -22.925781 2.375 -22.9375 C 2.769531 -22.945312 3.164062 -22.941406 3.5625 -22.921875 C 4.757812 -22.835938 5.960938 -22.789062 7.171875 -22.78125 C 8.378906 -22.769531 9.585938 -22.773438 10.796875 -22.796875 C 11.097656 -22.796875 11.394531 -22.800781 11.6875 -22.8125 C 11.976562 -22.820312 12.265625 -22.828125 12.546875 -22.828125 C 12.710938 -22.828125 12.820312 -22.796875 12.875 -22.734375 C 12.9375 -22.679688 12.96875 -22.570312 12.96875 -22.40625 C 12.988281 -21.96875 12.984375 -21.53125 12.953125 -21.09375 C 12.921875 -20.65625 12.890625 -20.207031 12.859375 -19.75 C 12.859375 -19.664062 12.859375 -19.5625 12.859375 -19.4375 C 12.859375 -19.320312 12.859375 -19.210938 12.859375 -19.109375 C 12.835938 -18.847656 12.710938 -18.707031 12.484375 -18.6875 C 12.460938 -18.6875 12.429688 -18.6875 12.390625 -18.6875 C 12.359375 -18.6875 12.320312 -18.6875 12.28125 -18.6875 C 11.832031 -18.726562 11.378906 -18.738281 10.921875 -18.71875 C 10.472656 -18.695312 10.03125 -18.675781 9.59375 -18.65625 C 9.507812 -18.65625 9.425781 -18.65625 9.34375 -18.65625 C 9.257812 -18.65625 9.171875 -18.65625 9.078125 -18.65625 C 8.972656 -18.65625 8.921875 -18.597656 8.921875 -18.484375 C 8.921875 -18.460938 8.921875 -18.425781 8.921875 -18.375 C 8.921875 -18.320312 8.921875 -18.273438 8.921875 -18.234375 C 8.921875 -17.753906 8.925781 -17.269531 8.9375 -16.78125 C 8.945312 -16.300781 8.941406 -15.828125 8.921875 -15.359375 C 8.898438 -14.554688 8.878906 -13.765625 8.859375 -12.984375 C 8.835938 -12.210938 8.804688 -11.441406 8.765625 -10.671875 C 8.742188 -10.609375 8.734375 -10.507812 8.734375 -10.375 C 8.734375 -10.375 8.722656 -10.375 8.703125 -10.375 Z M 8.703125 -10.375 "/></g></g></g><g mask="url(#0b63185fba)"><g transform="matrix(1, 0, 0, 1, 104, 216)"><g clip-path="url(#863585778c)"><g clip-path="url(#9b4c0aeab9)"><path fill="#ffffff" d="M 1.671875 4.460938 C 1.484375 4.460938 1.332031 4.308594 1.332031 4.121094 C 1.332031 3.933594 1.484375 3.78125 1.671875 3.78125 C 1.722656 3.78125 1.773438 3.792969 1.816406 3.8125 C 1.933594 3.867188 2.011719 3.984375 2.011719 4.121094 C 2.011719 4.152344 2.007812 4.183594 2 4.210938 C 1.957031 4.355469 1.828125 4.460938 1.671875 4.460938 Z M 2.441406 4.007812 C 2.417969 3.859375 2.355469 3.722656 2.257812 3.613281 C 2.117188 3.445312 1.90625 3.34375 1.671875 3.34375 C 1.242188 3.34375 0.894531 3.691406 0.894531 4.121094 C 0.894531 4.546875 1.242188 4.894531 1.671875 4.894531 C 2.101562 4.894531 2.449219 4.546875 2.449219 4.121094 C 2.449219 4.082031 2.445312 4.046875 2.441406 4.007812 " fill-opacity="1" fill-rule="nonzero"/></g><g clip-path="url(#5088c26ac1)"><path fill="#ffffff" d="M 7.257812 2.339844 C 7.152344 2.441406 7.011719 2.507812 6.863281 2.527344 C 6.828125 2.53125 6.796875 2.535156 6.761719 2.535156 C 6.542969 2.535156 6.347656 2.4375 6.210938 2.289062 C 6.113281 2.179688 6.050781 2.042969 6.03125 1.890625 C 6.027344 1.859375 6.023438 1.828125 6.023438 1.796875 C 6.023438 1.390625 6.355469 1.058594 6.761719 1.058594 C 7.167969 1.058594 7.496094 1.390625 7.496094 1.796875 C 7.496094 2.011719 7.40625 2.207031 7.257812 2.339844 Z M 6.761719 0.621094 C 6.113281 0.621094 5.585938 1.148438 5.585938 1.796875 C 5.585938 1.894531 5.597656 1.988281 5.621094 2.078125 C 5.65625 2.222656 5.71875 2.359375 5.800781 2.476562 C 6.015625 2.777344 6.367188 2.972656 6.761719 2.972656 C 6.863281 2.972656 6.960938 2.960938 7.054688 2.933594 C 7.199219 2.898438 7.332031 2.832031 7.449219 2.75 C 7.742188 2.535156 7.9375 2.1875 7.9375 1.796875 C 7.9375 1.148438 7.410156 0.621094 6.761719 0.621094 " fill-opacity="1" fill-rule="nonzero"/></g><g clip-path="url(#fa1eb243a5)"><path fill="#ffffff" d="M 9.019531 7.90625 C 8.304688 7.90625 7.71875 7.324219 7.71875 6.605469 C 7.71875 6.164062 7.941406 5.773438 8.277344 5.539062 C 8.394531 5.457031 8.527344 5.390625 8.671875 5.351562 C 8.78125 5.320312 8.898438 5.304688 9.019531 5.304688 C 9.464844 5.304688 9.859375 5.53125 10.09375 5.875 C 10.175781 5.996094 10.238281 6.128906 10.277344 6.273438 C 10.304688 6.378906 10.320312 6.492188 10.320312 6.605469 C 10.320312 7.324219 9.738281 7.90625 9.019531 7.90625 Z M 10.679688 6.089844 C 10.636719 5.949219 10.574219 5.816406 10.496094 5.691406 C 10.191406 5.199219 9.644531 4.867188 9.019531 4.867188 C 8.832031 4.867188 8.652344 4.898438 8.484375 4.953125 C 8.34375 4.996094 8.210938 5.0625 8.089844 5.140625 C 7.605469 5.449219 7.28125 5.988281 7.28125 6.605469 C 7.28125 7.566406 8.0625 8.34375 9.019531 8.34375 C 9.976562 8.34375 10.757812 7.566406 10.757812 6.605469 C 10.757812 6.425781 10.730469 6.253906 10.679688 6.089844 " fill-opacity="1" fill-rule="nonzero"/></g><path fill="#ffffff" d="M 17.101562 4.539062 C 16.789062 5.027344 16.242188 5.355469 15.617188 5.355469 C 14.988281 5.355469 14.433594 5.019531 14.125 4.519531 C 14.050781 4.398438 13.988281 4.265625 13.941406 4.121094 C 13.890625 3.957031 13.863281 3.78125 13.863281 3.597656 C 13.863281 2.632812 14.652344 1.84375 15.617188 1.84375 C 16.585938 1.84375 17.375 2.632812 17.375 3.597656 C 17.375 3.789062 17.34375 3.972656 17.289062 4.140625 C 17.242188 4.28125 17.179688 4.414062 17.101562 4.539062 Z M 15.617188 1.40625 C 14.410156 1.40625 13.425781 2.390625 13.425781 3.597656 C 13.425781 3.847656 13.464844 4.082031 13.542969 4.304688 C 13.589844 4.445312 13.652344 4.578125 13.726562 4.703125 C 14.105469 5.355469 14.8125 5.792969 15.617188 5.792969 C 16.417969 5.792969 17.117188 5.363281 17.5 4.726562 C 17.574219 4.601562 17.636719 4.46875 17.6875 4.328125 C 17.769531 4.101562 17.8125 3.855469 17.8125 3.597656 C 17.8125 2.390625 16.828125 1.40625 15.617188 1.40625 " fill-opacity="1" fill-rule="nonzero"/><g clip-path="url(#47ee89cf04)"><path fill="#ffffff" d="M 26.4375 2.363281 C 26.308594 2.363281 26.183594 2.328125 26.078125 2.265625 C 25.949219 2.195312 25.84375 2.082031 25.777344 1.949219 C 25.730469 1.851562 25.703125 1.742188 25.703125 1.625 C 25.703125 1.21875 26.03125 0.886719 26.4375 0.886719 C 26.84375 0.886719 27.175781 1.21875 27.175781 1.625 C 27.175781 2.03125 26.84375 2.363281 26.4375 2.363281 Z M 26.4375 0.449219 C 25.792969 0.449219 25.265625 0.976562 25.265625 1.625 C 25.265625 1.859375 25.332031 2.074219 25.449219 2.257812 C 25.527344 2.382812 25.632812 2.488281 25.75 2.574219 C 25.945312 2.71875 26.183594 2.800781 26.4375 2.800781 C 27.085938 2.800781 27.613281 2.273438 27.613281 1.625 C 27.613281 0.976562 27.085938 0.449219 26.4375 0.449219 " fill-opacity="1" fill-rule="nonzero"/></g><g clip-path="url(#f7f311c735)"><path fill="#ffffff" d="M 21.449219 7.640625 C 20.734375 7.640625 20.148438 7.054688 20.148438 6.339844 C 20.148438 6.21875 20.164062 6.101562 20.195312 5.992188 C 20.234375 5.847656 20.300781 5.714844 20.382812 5.59375 C 20.617188 5.257812 21.007812 5.039062 21.449219 5.039062 C 21.742188 5.039062 22.015625 5.136719 22.230469 5.300781 C 22.347656 5.386719 22.449219 5.496094 22.53125 5.617188 C 22.671875 5.824219 22.75 6.070312 22.75 6.339844 C 22.75 7.054688 22.167969 7.640625 21.449219 7.640625 Z M 22.851562 5.3125 C 22.765625 5.195312 22.664062 5.089844 22.550781 4.996094 C 22.253906 4.75 21.867188 4.601562 21.449219 4.601562 C 20.832031 4.601562 20.292969 4.921875 19.984375 5.40625 C 19.90625 5.53125 19.839844 5.664062 19.796875 5.804688 C 19.742188 5.972656 19.710938 6.152344 19.710938 6.339844 C 19.710938 7.296875 20.492188 8.078125 21.449219 8.078125 C 22.410156 8.078125 23.1875 7.296875 23.1875 6.339844 C 23.1875 5.953125 23.0625 5.601562 22.851562 5.3125 " fill-opacity="1" fill-rule="nonzero"/></g><path fill="#ffffff" d="M 6.03125 1.890625 C 6.050781 2.042969 6.113281 2.179688 6.210938 2.289062 L 5.800781 2.476562 L 2.441406 4.007812 L 2 4.210938 C 2.007812 4.183594 2.011719 4.152344 2.011719 4.121094 C 2.011719 3.984375 1.933594 3.867188 1.816406 3.8125 L 2.257812 3.613281 L 5.621094 2.078125 L 6.03125 1.890625 " fill-opacity="1" fill-rule="nonzero"/><path fill="#ffffff" d="M 8.484375 4.953125 L 8.671875 5.351562 C 8.527344 5.390625 8.394531 5.457031 8.277344 5.539062 L 8.089844 5.140625 L 7.054688 2.933594 L 6.863281 2.527344 C 7.011719 2.507812 7.152344 2.441406 7.257812 2.339844 L 7.449219 2.75 L 8.484375 4.953125 " fill-opacity="1" fill-rule="nonzero"/><path fill="#ffffff" d="M 13.941406 4.121094 C 13.988281 4.265625 14.050781 4.398438 14.125 4.519531 L 13.726562 4.703125 L 10.679688 6.089844 L 10.277344 6.273438 C 10.238281 6.128906 10.175781 5.996094 10.09375 5.875 L 10.496094 5.691406 L 13.542969 4.304688 L 13.941406 4.121094 " fill-opacity="1" fill-rule="nonzero"/><path fill="#ffffff" d="M 19.984375 5.40625 L 20.382812 5.59375 C 20.300781 5.714844 20.234375 5.847656 20.195312 5.992188 L 19.796875 5.804688 L 17.5 4.726562 L 17.101562 4.539062 C 17.179688 4.414062 17.242188 4.28125 17.289062 4.140625 L 17.6875 4.328125 L 19.984375 5.40625 " fill-opacity="1" fill-rule="nonzero"/><path fill="#ffffff" d="M 26.078125 2.265625 L 25.75 2.574219 L 22.851562 5.3125 L 22.53125 5.617188 C 22.449219 5.496094 22.347656 5.386719 22.230469 5.300781 L 22.550781 4.996094 L 25.449219 2.257812 L 25.777344 1.949219 C 25.84375 2.082031 25.949219 2.195312 26.078125 2.265625 " fill-opacity="1" fill-rule="nonzero"/></g></g></g><g mask="url(#eacf9a520c)"><g transform="matrix(1, 0, 0, 1, 119, 216)"><g clip-path="url(#c0246f848f)"><g clip-path="url(#3060a7954a)"><path fill="#ffffff" d="M 17.304688 36.488281 C 7.820312 36.488281 0.101562 28.769531 0.101562 19.28125 C 0.101562 9.796875 7.820312 2.078125 17.304688 2.078125 C 26.792969 2.078125 34.511719 9.796875 34.511719 19.28125 C 34.511719 28.769531 26.792969 36.488281 17.304688 36.488281 Z M 17.304688 3.925781 C 8.839844 3.925781 1.949219 10.816406 1.949219 19.28125 C 1.949219 27.75 8.839844 34.640625 17.304688 34.640625 C 25.773438 34.640625 32.660156 27.75 32.660156 19.28125 C 32.660156 10.816406 25.773438 3.925781 17.304688 3.925781 Z M 17.304688 3.925781 " fill-opacity="1" fill-rule="nonzero"/></g><path fill="#ffffff" d="M 33.1875 22.226562 L 77.1875 22.226562 L 77.1875 23.335938 L 33.1875 23.335938 Z M 33.1875 22.226562 " fill-opacity="1" fill-rule="nonzero"/><path fill="#ffffff" d="M 77.070312 25.078125 C 78.335938 25.078125 79.363281 24.050781 79.363281 22.78125 C 79.363281 21.515625 78.335938 20.488281 77.070312 20.488281 C 75.804688 20.488281 74.777344 21.515625 74.777344 22.78125 C 74.777344 24.050781 75.804688 25.078125 77.070312 25.078125 Z M 77.070312 25.078125 " fill-opacity="1" fill-rule="nonzero"/><g clip-path="url(#d0ea1d3b1e)"><path fill="#ffffff" d="M 33.253906 17.96875 L 80.28125 17.96875 L 80.28125 19.078125 L 33.253906 19.078125 Z M 33.253906 17.96875 " fill-opacity="1" fill-rule="nonzero"/></g><g clip-path="url(#ee5261a45c)"><path fill="#ffffff" d="M 80.167969 20.816406 C 81.433594 20.816406 82.460938 19.789062 82.460938 18.519531 C 82.460938 17.253906 81.433594 16.226562 80.167969 16.226562 C 78.902344 16.226562 77.871094 17.253906 77.871094 18.519531 C 77.871094 19.789062 78.902344 20.816406 80.167969 20.816406 Z M 80.167969 20.816406 " fill-opacity="1" fill-rule="nonzero"/></g><path fill="#ffffff" d="M 28.925781 29.835938 L 86.117188 29.835938 L 86.117188 30.945312 L 28.925781 30.945312 Z M 28.925781 29.835938 " fill-opacity="1" fill-rule="nonzero"/><path fill="#ffffff" d="M 86 32.683594 C 87.269531 32.683594 88.296875 31.65625 88.296875 30.390625 C 88.296875 29.125 87.269531 28.097656 86 28.097656 C 84.734375 28.097656 83.707031 29.125 83.707031 30.390625 C 83.707031 31.65625 84.734375 32.683594 86 32.683594 Z M 86 32.683594 " fill-opacity="1" fill-rule="nonzero"/><g clip-path="url(#9c75e8b845)"><path fill="#ffffff" d="M 87.226562 30.378906 L 103.269531 14.335938 L 103.921875 14.988281 L 87.878906 31.035156 Z M 87.226562 30.378906 " fill-opacity="1" fill-rule="nonzero"/></g><path fill="#ffffff" d="M 78.414062 23.015625 L 79.066406 22.363281 L 97.949219 41.246094 L 97.296875 41.898438 Z M 78.414062 23.015625 " fill-opacity="1" fill-rule="nonzero"/><path fill="#ffffff" d="M 96.207031 42.855469 C 96.953125 43.605469 98.160156 43.605469 98.910156 42.855469 C 99.65625 42.109375 99.65625 40.902344 98.910156 40.152344 C 98.160156 39.40625 96.953125 39.40625 96.207031 40.152344 C 95.457031 40.902344 95.457031 42.109375 96.207031 42.855469 Z M 96.207031 42.855469 " fill-opacity="1" fill-rule="nonzero"/><g clip-path="url(#1d372bb853)"><path fill="#ffffff" d="M 81.433594 18.40625 L 99.328125 0.511719 L 99.984375 1.164062 L 82.085938 19.0625 Z M 81.433594 18.40625 " fill-opacity="1" fill-rule="nonzero"/></g><g clip-path="url(#4621e8a782)"><path fill="#ffffff" d="M 111.195312 19.667969 C 111.832031 19.667969 112.34375 19.15625 112.34375 18.523438 C 112.34375 17.890625 111.828125 17.375 111.195312 17.375 C 110.566406 17.375 110.050781 17.890625 110.050781 18.523438 C 110.050781 19.15625 110.566406 19.667969 111.195312 19.667969 Z M 111.195312 19.667969 " fill-opacity="1" fill-rule="nonzero"/></g><path fill="#ffffff" d="M 94.867188 23.113281 L 113.707031 23.113281 L 113.707031 23.667969 L 94.867188 23.667969 Z M 94.867188 23.113281 " fill-opacity="1" fill-rule="nonzero"/><path fill="#ffffff" d="M 113.652344 24.539062 C 114.285156 24.539062 114.796875 24.023438 114.796875 23.390625 C 114.796875 22.757812 114.28125 22.246094 113.652344 22.246094 C 113.019531 22.246094 112.503906 22.757812 112.503906 23.390625 C 112.503906 24.023438 113.019531 24.539062 113.652344 24.539062 Z M 113.652344 24.539062 " fill-opacity="1" fill-rule="nonzero"/><path fill="#ffffff" d="M 98.21875 42.589844 L 120.738281 42.589844 L 120.738281 43.144531 L 98.21875 43.144531 Z M 98.21875 42.589844 " fill-opacity="1" fill-rule="nonzero"/><g clip-path="url(#381a2ab7bd)"><path fill="#ffffff" d="M 109.125 44.015625 C 109.761719 44.015625 110.273438 43.5 110.273438 42.867188 C 110.273438 42.234375 109.757812 41.722656 109.125 41.722656 C 108.496094 41.722656 107.980469 42.234375 107.980469 42.867188 C 107.980469 43.5 108.496094 44.015625 109.125 44.015625 Z M 109.125 44.015625 " fill-opacity="1" fill-rule="nonzero"/></g><path fill="#ffffff" d="M 96.550781 39.851562 L 113.113281 39.851562 L 113.113281 40.40625 L 96.550781 40.40625 Z M 96.550781 39.851562 " fill-opacity="1" fill-rule="nonzero"/><path fill="#ffffff" d="M 113.058594 41.273438 C 113.691406 41.273438 114.203125 40.761719 114.203125 40.128906 C 114.203125 39.496094 113.6875 38.980469 113.058594 38.980469 C 112.425781 38.980469 111.910156 39.496094 111.910156 40.128906 C 111.910156 40.761719 112.425781 41.273438 113.058594 41.273438 Z M 113.058594 41.273438 " fill-opacity="1" fill-rule="nonzero"/></g></g></g></svg>